<svg width="120" height="30" viewBox="374 11 120 32" fill="none" xmlns="http://www.w3.org/2000/svg">
<path d="M380.375 31.0599C380.288 30.6359 380.242 30.1838 380.242 29.6973C380.242 28.1671 380.666 26.9639 381.516 26.0898C382.365 25.2158 383.399 24.7797 384.62 24.7797C385.842 24.7797 386.875 25.2218 387.725 26.108C387.745 26.1302 387.763 26.1544 387.784 26.1746L395.138 21.3257V19.7188H389.001V22.5531C388.428 21.6205 387.606 20.8655 386.542 20.2922C385.478 19.7188 384.239 19.4302 382.828 19.4302C381.176 19.4302 379.681 19.8501 378.342 20.6858C377.002 21.5236 375.944 22.7206 375.167 24.275C374.39 25.8315 374 27.6362 374 29.6952C374 31.5423 374.317 33.1916 374.943 34.6431L380.379 31.0578L380.375 31.0599Z" fill="black"/>
<path d="M388.833 28.2236C388.94 28.6858 388.997 29.1885 388.997 29.7335C388.997 31.2657 388.571 32.4729 387.723 33.3591C386.873 34.2453 385.84 34.6874 384.618 34.6874C383.397 34.6874 382.363 34.2393 381.514 33.341C381.457 33.2824 381.409 33.2178 381.356 33.1552L376.077 36.6375C376.711 37.4974 377.464 38.206 378.338 38.7611C379.679 39.611 381.16 40.0349 382.789 40.0349C384.2 40.0349 385.438 39.7483 386.504 39.173C387.568 38.5996 388.399 37.8447 388.999 36.912V39.7463H395.136V24.0691L388.835 28.2236H388.833Z" fill="black"/>
<path d="M408.197 20.294C409.272 19.7207 410.506 19.4321 411.893 19.4321C413.544 19.4321 415.038 19.8519 416.378 20.6877C417.719 21.5254 418.777 22.7225 419.554 24.2769C420.331 25.8333 420.721 27.638 420.721 29.6971C420.721 31.7562 420.331 33.5669 419.554 35.1334C418.777 36.7 417.717 37.9092 416.378 38.759C415.038 39.6089 413.544 40.0328 411.893 40.0328C410.482 40.0328 409.248 39.7522 408.197 39.189C407.143 38.6278 406.317 37.8789 405.72 36.9462V39.7462H399.583V13.1882H405.72V22.555C406.293 21.6223 407.119 20.8673 408.197 20.294ZM413.205 26.0897C412.355 25.2156 411.307 24.7796 410.064 24.7796C408.82 24.7796 407.809 25.2217 406.959 26.1079C406.109 26.9941 405.685 28.2013 405.685 29.7334C405.685 31.2656 406.109 32.4728 406.959 33.359C407.809 34.2452 408.843 34.6873 410.064 34.6873C411.285 34.6873 412.325 34.2392 413.187 33.3408C414.049 32.4445 414.479 31.2293 414.479 29.6991C414.479 28.169 414.053 26.9658 413.205 26.0917V26.0897Z" fill="black"/>
<path d="M432.566 20.294C433.642 19.7207 434.876 19.4321 436.263 19.4321C437.914 19.4321 439.408 19.8519 440.748 20.6877C442.088 21.5254 443.146 22.7225 443.923 24.2769C444.701 25.8333 445.09 27.638 445.09 29.6971C445.09 31.7562 444.701 33.5669 443.923 35.1334C443.146 36.7 442.086 37.9092 440.748 38.759C439.408 39.6089 437.914 40.0328 436.263 40.0328C434.851 40.0328 433.618 39.7522 432.566 39.189C431.513 38.6278 430.689 37.8789 430.089 36.9462V39.7462H423.953V13.1882H430.089V22.555C430.663 21.6223 431.488 20.8673 432.566 20.294ZM437.573 26.0897C436.723 25.2156 435.677 24.7796 434.434 24.7796C433.19 24.7796 432.179 25.2217 431.329 26.1079C430.479 26.9941 430.055 28.2013 430.055 29.7334C430.055 31.2656 430.479 32.4728 431.329 33.359C432.179 34.2452 433.212 34.6873 434.434 34.6873C435.655 34.6873 436.695 34.2392 437.556 33.3408C438.418 32.4445 438.848 31.2293 438.848 29.6991C438.848 28.169 438.423 26.9658 437.575 26.0917L437.573 26.0897Z" fill="black"/>
<path d="M457.15 20.4557C458.226 19.8218 459.423 19.5049 460.739 19.5049V26.001H459.052C457.519 26.001 456.371 26.3301 455.606 26.9882C454.841 27.6463 454.457 28.801 454.457 30.4523V39.7483H448.32V19.7229H454.457V23.0598C455.176 21.9596 456.072 21.0916 457.148 20.4577L457.15 20.4557Z" fill="black"/>
<path d="M464.129 16.6887C463.446 16.0548 463.105 15.2716 463.105 14.3369C463.105 13.4022 463.446 12.5847 464.129 11.9508C464.811 11.3169 465.689 11 466.767 11C467.845 11 468.687 11.3169 469.369 11.9508C470.052 12.5847 470.393 13.38 470.393 14.3369C470.393 15.2938 470.052 16.0548 469.369 16.6887C468.687 17.3225 467.821 17.6395 466.767 17.6395C465.713 17.6395 464.811 17.3225 464.129 16.6887ZM469.817 19.7208V39.7462H463.681V19.7208H469.817Z" fill="black"/>
<path d="M486.112 39.7462L482.273 34.1827L479.043 39.7462H472.403L479.006 29.5175L472.224 19.7188H479.113L482.953 25.2459L486.183 19.7188H492.822L486.11 29.8041L493 39.7462H486.11H486.112Z" fill="black"/>
</svg>
