<svg width="493" height="54" viewBox="0 0 493 54" fill="none" xmlns="http://www.w3.org/2000/svg">
<path d="M408.197 20.294C409.272 19.7207 410.506 19.4321 411.893 19.4321C413.544 19.4321 415.038 19.8519 416.378 20.6877C417.719 21.5254 418.777 22.7225 419.554 24.2769C420.331 25.8333 420.721 27.638 420.721 29.6971C420.721 31.7562 420.331 33.5669 419.554 35.1334C418.777 36.7 417.717 37.9092 416.378 38.759C415.038 39.6089 413.544 40.0328 411.893 40.0328C410.482 40.0328 409.248 39.7522 408.197 39.189C407.143 38.6278 406.317 37.8789 405.72 36.9462V39.7462H399.583V13.1882H405.72V22.555C406.293 21.6223 407.119 20.8673 408.197 20.294ZM413.205 26.0897C412.355 25.2156 411.307 24.7796 410.064 24.7796C408.82 24.7796 407.809 25.2217 406.959 26.1079C406.109 26.9941 405.685 28.2013 405.685 29.7334C405.685 31.2656 406.109 32.4728 406.959 33.359C407.809 34.2452 408.843 34.6873 410.064 34.6873C411.285 34.6873 412.325 34.2392 413.187 33.3408C414.049 32.4445 414.479 31.2293 414.479 29.6991C414.479 28.169 414.053 26.9658 413.205 26.0917V26.0897Z" fill="black"/>
<path d="M432.566 20.294C433.642 19.7207 434.876 19.4321 436.263 19.4321C437.914 19.4321 439.408 19.8519 440.748 20.6877C442.088 21.5254 443.146 22.7225 443.923 24.2769C444.701 25.8333 445.09 27.638 445.09 29.6971C445.09 31.7562 444.701 33.5669 443.923 35.1334C443.146 36.7 442.086 37.9092 440.748 38.759C439.408 39.6089 437.914 40.0328 436.263 40.0328C434.851 40.0328 433.618 39.7522 432.566 39.189C431.513 38.6278 430.689 37.8789 430.089 36.9462V39.7462H423.953V13.1882H430.089V22.555C430.663 21.6223 431.488 20.8673 432.566 20.294ZM437.573 26.0897C436.723 25.2156 435.677 24.7796 434.434 24.7796C433.19 24.7796 432.179 25.2217 431.329 26.1079C430.479 26.9941 430.055 28.2013 430.055 29.7334C430.055 31.2656 430.479 32.4728 431.329 33.359C432.179 34.2452 433.212 34.6873 434.434 34.6873C435.655 34.6873 436.695 34.2392 437.556 33.3408C438.418 32.4445 438.848 31.2293 438.848 29.6991C438.848 28.169 438.423 26.9658 437.575 26.0917L437.573 26.0897Z" fill="black"/>
<path d="M457.15 20.4557C458.226 19.8218 459.423 19.5049 460.739 19.5049V26.001H459.052C457.519 26.001 456.371 26.3301 455.606 26.9882C454.841 27.6463 454.457 28.801 454.457 30.4523V39.7483H448.32V19.7229H454.457V23.0598C455.176 21.9596 456.072 21.0916 457.148 20.4577L457.15 20.4557Z" fill="black"/>
<path d="M464.129 16.6887C463.446 16.0548 463.105 15.2716 463.105 14.3369C463.105 13.4022 463.446 12.5847 464.129 11.9508C464.811 11.3169 465.689 11 466.767 11C467.845 11 468.687 11.3169 469.369 11.9508C470.052 12.5847 470.393 13.38 470.393 14.3369C470.393 15.2938 470.052 16.0548 469.369 16.6887C468.687 17.3225 467.821 17.6395 466.767 17.6395C465.713 17.6395 464.811 17.3225 464.129 16.6887ZM469.817 19.7208V39.7462H463.681V19.7208H469.817Z" fill="black"/>
<path d="M486.112 39.7462L482.273 34.1827L479.043 39.7462H472.403L479.006 29.5175L472.224 19.7188H479.113L482.953 25.2459L486.183 19.7188H492.822L486.11 29.8041L493 39.7462H486.11H486.112Z" fill="black"/>
<path d="M380.375 31.0599C380.288 30.6359 380.242 30.1838 380.242 29.6973C380.242 28.1671 380.666 26.9639 381.516 26.0898C382.365 25.2158 383.399 24.7797 384.62 24.7797C385.842 24.7797 386.875 25.2218 387.725 26.108C387.745 26.1302 387.763 26.1544 387.784 26.1746L395.138 21.3257V19.7188H389.001V22.5531C388.428 21.6205 387.606 20.8655 386.542 20.2922C385.478 19.7188 384.239 19.4302 382.828 19.4302C381.176 19.4302 379.681 19.8501 378.342 20.6858C377.002 21.5236 375.944 22.7206 375.167 24.275C374.39 25.8315 374 27.6362 374 29.6952C374 31.5423 374.317 33.1916 374.943 34.6431L380.379 31.0578L380.375 31.0599Z" fill="black"/>
<path d="M388.833 28.2236C388.94 28.6858 388.997 29.1885 388.997 29.7335C388.997 31.2657 388.571 32.4729 387.723 33.3591C386.873 34.2453 385.84 34.6874 384.618 34.6874C383.397 34.6874 382.363 34.2393 381.514 33.341C381.457 33.2824 381.409 33.2178 381.356 33.1552L376.077 36.6375C376.711 37.4974 377.464 38.206 378.338 38.7611C379.679 39.611 381.16 40.0349 382.789 40.0349C384.2 40.0349 385.438 39.7483 386.504 39.173C387.568 38.5996 388.399 37.8447 388.999 36.912V39.7463H395.136V24.0691L388.835 28.2236H388.833Z" fill="black"/>
<path d="M1.548 30.1C1.548 28.06 1.956 26.284 2.772 24.772C3.588 23.236 4.716 22.048 6.156 21.208C7.62 20.368 9.288 19.948 11.16 19.948C13.584 19.948 15.576 20.536 17.136 21.712C18.72 22.888 19.764 24.52 20.268 26.608H16.74C16.404 25.408 15.744 24.46 14.76 23.764C13.8 23.068 12.6 22.72 11.16 22.72C9.288 22.72 7.776 23.368 6.624 24.664C5.472 25.936 4.896 27.748 4.896 30.1C4.896 32.476 5.472 34.312 6.624 35.608C7.776 36.904 9.288 37.552 11.16 37.552C12.6 37.552 13.8 37.216 14.76 36.544C15.72 35.872 16.38 34.912 16.74 33.664H20.268C19.74 35.68 18.684 37.3 17.1 38.524C15.516 39.724 13.536 40.324 11.16 40.324C9.288 40.324 7.62 39.904 6.156 39.064C4.716 38.224 3.588 37.036 2.772 35.5C1.956 33.964 1.548 32.164 1.548 30.1ZM33.2432 40.324C31.3952 40.324 29.7152 39.904 28.2032 39.064C26.7152 38.224 25.5392 37.036 24.6752 35.5C23.8352 33.94 23.4152 32.14 23.4152 30.1C23.4152 28.084 23.8472 26.308 24.7112 24.772C25.5992 23.212 26.7992 22.024 28.3112 21.208C29.8232 20.368 31.5152 19.948 33.3872 19.948C35.2592 19.948 36.9512 20.368 38.4632 21.208C39.9752 22.024 41.1632 23.2 42.0272 24.736C42.9152 26.272 43.3592 28.06 43.3592 30.1C43.3592 32.14 42.9032 33.94 41.9912 35.5C41.1032 37.036 39.8912 38.224 38.3552 39.064C36.8192 39.904 35.1152 40.324 33.2432 40.324ZM33.2432 37.444C34.4192 37.444 35.5232 37.168 36.5552 36.616C37.5872 36.064 38.4152 35.236 39.0392 34.132C39.6872 33.028 40.0112 31.684 40.0112 30.1C40.0112 28.516 39.6992 27.172 39.0752 26.068C38.4512 24.964 37.6352 24.148 36.6272 23.62C35.6192 23.068 34.5272 22.792 33.3512 22.792C32.1512 22.792 31.0472 23.068 30.0392 23.62C29.0552 24.148 28.2632 24.964 27.6632 26.068C27.0632 27.172 26.7632 28.516 26.7632 30.1C26.7632 31.708 27.0512 33.064 27.6272 34.168C28.2272 35.272 29.0192 36.1 30.0032 36.652C30.9872 37.18 32.0672 37.444 33.2432 37.444ZM46.4425 30.064C46.4425 28.048 46.8505 26.284 47.6665 24.772C48.4825 23.236 49.5985 22.048 51.0145 21.208C52.4545 20.368 54.0625 19.948 55.8385 19.948C57.3745 19.948 58.8025 20.308 60.1225 21.028C61.4425 21.724 62.4505 22.648 63.1465 23.8V13.36H66.4585V40H63.1465V36.292C62.4985 37.468 61.5385 38.44 60.2665 39.208C58.9945 39.952 57.5065 40.324 55.8025 40.324C54.0505 40.324 52.4545 39.892 51.0145 39.028C49.5985 38.164 48.4825 36.952 47.6665 35.392C46.8505 33.832 46.4425 32.056 46.4425 30.064ZM63.1465 30.1C63.1465 28.612 62.8465 27.316 62.2465 26.212C61.6465 25.108 60.8305 24.268 59.7985 23.692C58.7905 23.092 57.6745 22.792 56.4505 22.792C55.2265 22.792 54.1105 23.08 53.1025 23.656C52.0945 24.232 51.2905 25.072 50.6905 26.176C50.0905 27.28 49.7905 28.576 49.7905 30.064C49.7905 31.576 50.0905 32.896 50.6905 34.024C51.2905 35.128 52.0945 35.98 53.1025 36.58C54.1105 37.156 55.2265 37.444 56.4505 37.444C57.6745 37.444 58.7905 37.156 59.7985 36.58C60.8305 35.98 61.6465 35.128 62.2465 34.024C62.8465 32.896 63.1465 31.588 63.1465 30.1ZM89.9947 29.38C89.9947 30.004 89.9587 30.664 89.8867 31.36H74.1187C74.2387 33.304 74.8987 34.828 76.0987 35.932C77.3227 37.012 78.7987 37.552 80.5267 37.552C81.9427 37.552 83.1187 37.228 84.0547 36.58C85.0147 35.908 85.6867 35.02 86.0707 33.916H89.5987C89.0707 35.812 88.0147 37.36 86.4307 38.56C84.8467 39.736 82.8787 40.324 80.5267 40.324C78.6547 40.324 76.9747 39.904 75.4867 39.064C74.0227 38.224 72.8707 37.036 72.0307 35.5C71.1907 33.94 70.7707 32.14 70.7707 30.1C70.7707 28.06 71.1787 26.272 71.9947 24.736C72.8107 23.2 73.9507 22.024 75.4147 21.208C76.9027 20.368 78.6067 19.948 80.5267 19.948C82.3987 19.948 84.0547 20.356 85.4947 21.172C86.9347 21.988 88.0387 23.116 88.8067 24.556C89.5987 25.972 89.9947 27.58 89.9947 29.38ZM86.6107 28.696C86.6107 27.448 86.3347 26.38 85.7827 25.492C85.2307 24.58 84.4747 23.896 83.5147 23.44C82.5787 22.96 81.5347 22.72 80.3827 22.72C78.7267 22.72 77.3107 23.248 76.1347 24.304C74.9827 25.36 74.3227 26.824 74.1547 28.696H86.6107ZM102.693 30.064C102.693 28.048 103.101 26.284 103.917 24.772C104.733 23.236 105.849 22.048 107.265 21.208C108.705 20.368 110.301 19.948 112.053 19.948C113.781 19.948 115.281 20.32 116.553 21.064C117.825 21.808 118.773 22.744 119.397 23.872V20.272H122.709V40H119.397V36.328C118.749 37.48 117.777 38.44 116.481 39.208C115.209 39.952 113.721 40.324 112.017 40.324C110.265 40.324 108.681 39.892 107.265 39.028C105.849 38.164 104.733 36.952 103.917 35.392C103.101 33.832 102.693 32.056 102.693 30.064ZM119.397 30.1C119.397 28.612 119.097 27.316 118.497 26.212C117.897 25.108 117.081 24.268 116.049 23.692C115.041 23.092 113.925 22.792 112.701 22.792C111.477 22.792 110.361 23.08 109.353 23.656C108.345 24.232 107.541 25.072 106.941 26.176C106.341 27.28 106.041 28.576 106.041 30.064C106.041 31.576 106.341 32.896 106.941 34.024C107.541 35.128 108.345 35.98 109.353 36.58C110.361 37.156 111.477 37.444 112.701 37.444C113.925 37.444 115.041 37.156 116.049 36.58C117.081 35.98 117.897 35.128 118.497 34.024C119.097 32.896 119.397 31.588 119.397 30.1ZM137.857 19.912C140.257 19.912 142.201 20.644 143.689 22.108C145.177 23.548 145.921 25.636 145.921 28.372V40H142.681V28.84C142.681 26.872 142.189 25.372 141.205 24.34C140.221 23.284 138.877 22.756 137.173 22.756C135.445 22.756 134.065 23.296 133.033 24.376C132.025 25.456 131.521 27.028 131.521 29.092V40H128.245V20.272H131.521V23.08C132.169 22.072 133.045 21.292 134.149 20.74C135.277 20.188 136.513 19.912 137.857 19.912ZM150.048 30.064C150.048 28.048 150.456 26.284 151.272 24.772C152.088 23.236 153.204 22.048 154.62 21.208C156.06 20.368 157.668 19.948 159.444 19.948C160.98 19.948 162.408 20.308 163.728 21.028C165.048 21.724 166.056 22.648 166.752 23.8V13.36H170.064V40H166.752V36.292C166.104 37.468 165.144 38.44 163.872 39.208C162.6 39.952 161.112 40.324 159.408 40.324C157.656 40.324 156.06 39.892 154.62 39.028C153.204 38.164 152.088 36.952 151.272 35.392C150.456 33.832 150.048 32.056 150.048 30.064ZM166.752 30.1C166.752 28.612 166.452 27.316 165.852 26.212C165.252 25.108 164.436 24.268 163.404 23.692C162.396 23.092 161.28 22.792 160.056 22.792C158.832 22.792 157.716 23.08 156.708 23.656C155.7 24.232 154.896 25.072 154.296 26.176C153.696 27.28 153.396 28.576 153.396 30.064C153.396 31.576 153.696 32.896 154.296 34.024C154.896 35.128 155.7 35.98 156.708 36.58C157.716 37.156 158.832 37.444 160.056 37.444C161.28 37.444 162.396 37.156 163.404 36.58C164.436 35.98 165.252 35.128 165.852 34.024C166.452 32.896 166.752 31.588 166.752 30.1ZM183.974 30.064C183.974 28.048 184.382 26.284 185.198 24.772C186.014 23.236 187.13 22.048 188.546 21.208C189.986 20.368 191.594 19.948 193.37 19.948C194.906 19.948 196.334 20.308 197.654 21.028C198.974 21.724 199.982 22.648 200.678 23.8V13.36H203.99V40H200.678V36.292C200.03 37.468 199.07 38.44 197.798 39.208C196.526 39.952 195.038 40.324 193.334 40.324C191.582 40.324 189.986 39.892 188.546 39.028C187.13 38.164 186.014 36.952 185.198 35.392C184.382 33.832 183.974 32.056 183.974 30.064ZM200.678 30.1C200.678 28.612 200.378 27.316 199.778 26.212C199.178 25.108 198.362 24.268 197.33 23.692C196.322 23.092 195.206 22.792 193.982 22.792C192.758 22.792 191.642 23.08 190.634 23.656C189.626 24.232 188.822 25.072 188.222 26.176C187.622 27.28 187.322 28.576 187.322 30.064C187.322 31.576 187.622 32.896 188.222 34.024C188.822 35.128 189.626 35.98 190.634 36.58C191.642 37.156 192.758 37.444 193.982 37.444C195.206 37.444 196.322 37.156 197.33 36.58C198.362 35.98 199.178 35.128 199.778 34.024C200.378 32.896 200.678 31.588 200.678 30.1ZM227.526 29.38C227.526 30.004 227.49 30.664 227.418 31.36H211.65C211.77 33.304 212.43 34.828 213.63 35.932C214.854 37.012 216.33 37.552 218.058 37.552C219.474 37.552 220.65 37.228 221.586 36.58C222.546 35.908 223.218 35.02 223.602 33.916H227.13C226.602 35.812 225.546 37.36 223.962 38.56C222.378 39.736 220.41 40.324 218.058 40.324C216.186 40.324 214.506 39.904 213.018 39.064C211.554 38.224 210.402 37.036 209.562 35.5C208.722 33.94 208.302 32.14 208.302 30.1C208.302 28.06 208.71 26.272 209.526 24.736C210.342 23.2 211.482 22.024 212.946 21.208C214.434 20.368 216.138 19.948 218.058 19.948C219.93 19.948 221.586 20.356 223.026 21.172C224.466 21.988 225.57 23.116 226.338 24.556C227.13 25.972 227.526 27.58 227.526 29.38ZM224.142 28.696C224.142 27.448 223.866 26.38 223.314 25.492C222.762 24.58 222.006 23.896 221.046 23.44C220.11 22.96 219.066 22.72 217.914 22.72C216.258 22.72 214.842 23.248 213.666 24.304C212.514 25.36 211.854 26.824 211.686 28.696H224.142ZM238.834 40.324C237.322 40.324 235.966 40.072 234.766 39.568C233.566 39.04 232.618 38.32 231.922 37.408C231.226 36.472 230.842 35.404 230.77 34.204H234.154C234.25 35.188 234.706 35.992 235.522 36.616C236.362 37.24 237.454 37.552 238.798 37.552C240.046 37.552 241.03 37.276 241.75 36.724C242.47 36.172 242.83 35.476 242.83 34.636C242.83 33.772 242.446 33.136 241.678 32.728C240.91 32.296 239.722 31.876 238.114 31.468C236.65 31.084 235.45 30.7 234.514 30.316C233.602 29.908 232.81 29.32 232.138 28.552C231.49 27.76 231.166 26.728 231.166 25.456C231.166 24.448 231.466 23.524 232.066 22.684C232.666 21.844 233.518 21.184 234.622 20.704C235.726 20.2 236.986 19.948 238.402 19.948C240.586 19.948 242.35 20.5 243.694 21.604C245.038 22.708 245.758 24.22 245.854 26.14H242.578C242.506 25.108 242.086 24.28 241.318 23.656C240.574 23.032 239.566 22.72 238.294 22.72C237.118 22.72 236.182 22.972 235.486 23.476C234.79 23.98 234.442 24.64 234.442 25.456C234.442 26.104 234.646 26.644 235.054 27.076C235.486 27.484 236.014 27.82 236.638 28.084C237.286 28.324 238.174 28.6 239.302 28.912C240.718 29.296 241.87 29.68 242.758 30.064C243.646 30.424 244.402 30.976 245.026 31.72C245.674 32.464 246.01 33.436 246.034 34.636C246.034 35.716 245.734 36.688 245.134 37.552C244.534 38.416 243.682 39.1 242.578 39.604C241.498 40.084 240.25 40.324 238.834 40.324ZM252.351 17.068C251.727 17.068 251.199 16.852 250.767 16.42C250.335 15.988 250.119 15.46 250.119 14.836C250.119 14.212 250.335 13.684 250.767 13.252C251.199 12.82 251.727 12.604 252.351 12.604C252.951 12.604 253.455 12.82 253.863 13.252C254.295 13.684 254.511 14.212 254.511 14.836C254.511 15.46 254.295 15.988 253.863 16.42C253.455 16.852 252.951 17.068 252.351 17.068ZM253.935 20.272V40H250.659V20.272H253.935ZM267.654 19.948C269.358 19.948 270.846 20.32 272.118 21.064C273.414 21.808 274.374 22.744 274.998 23.872V20.272H278.31V40.432C278.31 42.232 277.926 43.828 277.158 45.22C276.39 46.636 275.286 47.74 273.846 48.532C272.43 49.324 270.774 49.72 268.878 49.72C266.286 49.72 264.126 49.108 262.398 47.884C260.67 46.66 259.65 44.992 259.338 42.88H262.578C262.938 44.08 263.682 45.04 264.81 45.76C265.938 46.504 267.294 46.876 268.878 46.876C270.678 46.876 272.142 46.312 273.27 45.184C274.422 44.056 274.998 42.472 274.998 40.432V36.292C274.35 37.444 273.39 38.404 272.118 39.172C270.846 39.94 269.358 40.324 267.654 40.324C265.902 40.324 264.306 39.892 262.866 39.028C261.45 38.164 260.334 36.952 259.518 35.392C258.702 33.832 258.294 32.056 258.294 30.064C258.294 28.048 258.702 26.284 259.518 24.772C260.334 23.236 261.45 22.048 262.866 21.208C264.306 20.368 265.902 19.948 267.654 19.948ZM274.998 30.1C274.998 28.612 274.698 27.316 274.098 26.212C273.498 25.108 272.682 24.268 271.65 23.692C270.642 23.092 269.526 22.792 268.302 22.792C267.078 22.792 265.962 23.08 264.954 23.656C263.946 24.232 263.142 25.072 262.542 26.176C261.942 27.28 261.642 28.576 261.642 30.064C261.642 31.576 261.942 32.896 262.542 34.024C263.142 35.128 263.946 35.98 264.954 36.58C265.962 37.156 267.078 37.444 268.302 37.444C269.526 37.444 270.642 37.156 271.65 36.58C272.682 35.98 273.498 35.128 274.098 34.024C274.698 32.896 274.998 31.588 274.998 30.1ZM293.458 19.912C295.858 19.912 297.802 20.644 299.29 22.108C300.778 23.548 301.522 25.636 301.522 28.372V40H298.282V28.84C298.282 26.872 297.79 25.372 296.806 24.34C295.822 23.284 294.478 22.756 292.774 22.756C291.046 22.756 289.666 23.296 288.634 24.376C287.626 25.456 287.122 27.028 287.122 29.092V40H283.846V20.272H287.122V23.08C287.77 22.072 288.646 21.292 289.75 20.74C290.878 20.188 292.114 19.912 293.458 19.912ZM319.747 23.944C320.419 22.768 321.403 21.808 322.699 21.064C323.995 20.32 325.471 19.948 327.127 19.948C328.903 19.948 330.499 20.368 331.915 21.208C333.331 22.048 334.447 23.236 335.263 24.772C336.079 26.284 336.487 28.048 336.487 30.064C336.487 32.056 336.079 33.832 335.263 35.392C334.447 36.952 333.319 38.164 331.879 39.028C330.463 39.892 328.879 40.324 327.127 40.324C325.423 40.324 323.923 39.952 322.627 39.208C321.355 38.464 320.395 37.516 319.747 36.364V40H316.471V13.36H319.747V23.944ZM333.139 30.064C333.139 28.576 332.839 27.28 332.239 26.176C331.639 25.072 330.823 24.232 329.791 23.656C328.783 23.08 327.667 22.792 326.443 22.792C325.243 22.792 324.127 23.092 323.095 23.692C322.087 24.268 321.271 25.12 320.647 26.248C320.047 27.352 319.747 28.636 319.747 30.1C319.747 31.588 320.047 32.896 320.647 34.024C321.271 35.128 322.087 35.98 323.095 36.58C324.127 37.156 325.243 37.444 326.443 37.444C327.667 37.444 328.783 37.156 329.791 36.58C330.823 35.98 331.639 35.128 332.239 34.024C332.839 32.896 333.139 31.576 333.139 30.064ZM357.791 20.272L345.911 49.288H342.527L346.415 39.784L338.459 20.272H342.095L348.287 36.256L354.407 20.272H357.791Z" fill="black"/>
</svg>
