<svg width="296" height="83" viewBox="0 0 296 83" fill="none" xmlns="http://www.w3.org/2000/svg">
<path d="M30.7578 14.4645C31.584 13.9472 50.5808 2.58015 50.6436 2.5426L44.833 0.25647C44.833 0.25647 43.5347 -0.515859 41.917 0.619751C39.0365 2.84584 32.1803 8.14272 30.209 9.64026C28.0384 11.3565 29.631 14.0736 30.7578 14.4645ZM30.1279 54.441C35.9346 54.5259 55.5439 53.2687 63.96 33.7301L63.9697 33.6686C66.4596 26.9095 64.2988 22.9287 62.0225 20.7672C56.2017 15.2007 42.9285 15.4065 28.959 21.276C17.9134 25.9245 8.54309 33.5535 4.51562 41.1949C3.74724 42.6704 2.79395 45.1914 2.45996 47.8287C2.29216 49.1309 2.80381 50.2029 3.72852 50.4723C4.26292 50.648 5.31223 50.6654 6.1709 48.9586C7.23944 46.8546 9.04367 43.7684 11.5635 41.1227C14.8649 37.2631 20.1128 33.444 26.3447 30.3024C39.7934 23.5632 51.0392 22.7637 54.1514 25.8961C55.4236 27.1822 55.3528 29.231 53.9209 31.984C46.956 45.9557 19.8822 46.6423 16.8115 46.6813C15.3375 46.6949 13.9914 47.618 13.6006 48.8512C13.31 49.8168 13.6576 50.764 14.4785 51.3492C17.5176 53.4387 22.0516 54.345 30.1279 54.441ZM119.354 82.2018C125.318 82.2017 130.709 80.7451 135.499 77.8444C140.299 74.9459 144.134 70.8419 146.983 65.527H141.214C141.189 65.525 139.803 65.4226 138.787 66.691C136.405 69.6802 133.671 71.9679 130.585 73.5651C127.101 75.3567 123.189 76.2506 118.881 76.2506C111.877 76.2506 105.927 73.6663 101.042 68.4918C96.1365 63.3282 93.6885 56.9711 93.6885 49.4215C93.6886 42.3418 96.1657 36.2301 101.09 31.0856C106.033 25.9488 111.982 23.3776 118.943 23.3776C123.361 23.3776 127.332 24.2948 130.79 26.1285C133.916 27.7799 136.769 30.2783 139.359 33.611C140.424 34.8615 141.883 34.7408 141.883 34.7408H147.537C144.645 29.185 140.714 24.8913 135.742 21.8805C130.79 18.846 125.212 17.3229 119.016 17.3229C114.697 17.3229 110.694 18.0882 106.996 19.6188C103.285 21.1484 99.9535 23.3904 96.9863 26.3698C93.78 29.5127 91.3556 33.0339 89.6855 36.9479C88.0452 40.8618 87.211 45.0059 87.2109 49.3727C87.2109 58.7455 90.2786 66.5571 96.4053 72.819C102.53 79.0742 110.179 82.2018 119.354 82.2018ZM193.735 74.8639H174.66C174.647 74.8641 171.746 74.9032 171.746 71.859V21.3766C171.746 19.5559 170.147 18.4908 168.716 18.4908H165.585C165.585 18.4908 165.585 75.3107 165.585 78.0211C165.585 80.7134 168.393 80.9155 168.424 80.9176H193.735V74.8639ZM283.038 27.4811C283.038 27.4811 283.08 24.6491 285.943 24.649H295.462V18.4908H264.458V24.649H273.953C276.918 24.649 276.878 27.486 276.878 27.5094V77.9703C276.878 77.9703 276.984 80.9176 279.875 80.9176H283.038V27.4811ZM207.505 80.9176C209.556 80.9175 210.315 78.986 210.315 78.986L216.294 63.3395C216.302 63.3183 217.058 61.4128 219.003 61.4127H242.716C244.807 61.4127 245.494 63.2399 245.494 63.2399L251.466 78.9196C251.474 78.9455 252.125 80.9175 254.21 80.9176H258.785L234.673 18.5592H227.319L203.182 80.9176H207.505ZM223.226 55.7955C221.528 55.7997 219.81 54.1347 220.549 52.067C222.972 45.5501 227.738 32.6561 228.097 31.7565C229.046 29.4492 232.472 28.8374 233.599 31.775C235.444 36.7424 239.081 46.37 241.142 51.7975C242.044 54.209 240.217 55.7993 238.499 55.7955H223.226ZM0.3125 62.236C2.04503 73.5844 14.116 84.2924 33.835 82.8131C49.5274 81.6256 63.9115 73.1019 70.4912 61.0748C72.0991 58.1631 71.4558 56.2335 70.3105 55.403C69.0895 54.5155 66.8709 54.6386 64.7041 56.9283C57.2279 64.8374 46.4545 70.3092 35.2051 71.9039C19.0688 74.2339 5.53169 67.4609 3.70996 56.1666C3.47593 54.599 2.57349 54.084 1.82031 54.1285C1.32384 54.1491 0.159605 54.4617 0.0458984 56.778C-0.0648823 58.5901 0.0261402 60.4321 0.3125 62.236Z" fill="#1A1714"/>
</svg>
