<svg width="296" height="83" viewBox="0 0 296 83" fill="none" xmlns="http://www.w3.org/2000/svg">
<path d="M30.7577 14.4646C31.5838 13.9473 50.5806 2.58023 50.6434 2.54268L44.8329 0.256548C44.8329 0.256548 43.5345 -0.515781 41.9168 0.619829C39.0364 2.84592 32.1801 8.1428 30.2088 9.64034C28.0382 11.3566 29.6309 14.0737 30.7577 14.4646ZM30.1278 54.4411C35.9344 54.526 55.5437 53.2688 63.9598 33.7302L63.9696 33.6687C66.4595 26.9096 64.2986 22.9288 62.0223 20.7673C56.2015 15.2008 42.9284 15.4065 28.9588 21.2761C17.9132 25.9246 8.54294 33.5536 4.51547 41.195C3.74709 42.6705 2.79379 45.1915 2.45981 47.8288C2.29201 49.131 2.80366 50.203 3.72836 50.4724C4.26276 50.6481 5.31208 50.6655 6.17074 48.9587C7.23929 46.8547 9.04351 43.7684 11.5633 41.1228C14.8648 37.2632 20.1126 33.444 26.3446 30.3024C39.7932 23.5632 51.0391 22.7638 54.1512 25.8962C55.4235 27.1823 55.3527 29.231 53.9207 31.9841C46.9559 45.9557 19.882 46.6424 16.8114 46.6814C15.3374 46.695 13.9912 47.6181 13.6004 48.8513C13.3099 49.8169 13.6575 50.764 14.4784 51.3493C17.5174 53.4388 22.0514 54.3451 30.1278 54.4411ZM119.353 82.2019C125.318 82.2018 130.708 80.7451 135.499 77.8444C140.299 74.946 144.134 70.842 146.983 65.5271H141.214C141.188 65.5251 139.803 65.4227 138.787 66.6911C136.405 69.6803 133.671 71.9679 130.585 73.5651C127.101 75.3568 123.188 76.2507 118.881 76.2507C111.877 76.2506 105.927 73.6664 101.042 68.4919C96.1364 63.3283 93.6883 56.9712 93.6883 49.4216C93.6884 42.3419 96.1655 36.2302 101.09 31.0856C106.033 25.9489 111.982 23.3776 118.943 23.3776C123.36 23.3776 127.332 24.2949 130.79 26.1286C133.915 27.78 136.769 30.2784 139.359 33.611C140.423 34.8616 141.883 34.7409 141.883 34.7409H147.537C144.645 29.1851 140.714 24.8914 135.742 21.8806C130.789 18.8461 125.212 17.323 119.015 17.323C114.697 17.323 110.693 18.0883 106.996 19.6189C103.285 21.1485 99.9534 23.3905 96.9862 26.3698C93.7798 29.5128 91.3555 33.034 89.6854 36.948C88.045 40.8618 87.2108 45.006 87.2108 49.3728C87.2108 58.7455 90.2785 66.5572 96.4051 72.819C102.53 79.0742 110.179 82.2019 119.353 82.2019ZM193.735 74.864H174.66C174.647 74.8642 171.746 74.9033 171.746 71.8591V21.3767C171.746 19.556 170.147 18.4909 168.716 18.4909H165.585C165.585 18.4909 165.585 75.3108 165.585 78.0212C165.585 80.7135 168.393 80.9155 168.424 80.9177H193.735V74.864ZM283.038 27.4812C283.038 27.4812 283.08 24.6492 285.943 24.6491H295.462V18.4909H264.458V24.6491H273.953C276.917 24.6491 276.878 27.4861 276.878 27.5095V77.9704C276.878 77.9704 276.984 80.9177 279.875 80.9177H283.038V27.4812ZM207.505 80.9177C209.556 80.9175 210.315 78.986 210.315 78.986L216.294 63.3396C216.302 63.3184 217.058 61.4129 219.003 61.4128H242.716C244.806 61.4128 245.494 63.2399 245.494 63.2399L251.466 78.9196C251.474 78.9456 252.125 80.9176 254.21 80.9177H258.785L234.673 18.5593H227.319L203.181 80.9177H207.505ZM223.225 55.7956C221.528 55.7997 219.81 54.1348 220.549 52.0671C222.972 45.5501 227.738 32.6562 228.097 31.7565C229.046 29.4493 232.472 28.8374 233.598 31.7751C235.444 36.7425 239.08 46.37 241.141 51.7976C242.044 54.2091 240.216 55.7994 238.499 55.7956H223.225ZM0.312346 62.236C2.04488 73.5844 14.1159 84.2925 33.8348 82.8132C49.5273 81.6257 63.9113 73.1019 70.4911 61.0749C72.099 58.1632 71.4557 56.2336 70.3104 55.403C69.0893 54.5156 66.8707 54.6387 64.7039 56.9284C57.2278 64.8375 46.4544 70.3093 35.2049 71.904C19.0687 74.234 5.53154 67.461 3.70981 56.1667C3.47578 54.5991 2.57334 54.0841 1.82016 54.1286C1.32369 54.1492 0.159451 54.4618 0.0457447 56.778C-0.065036 58.5902 0.0259865 60.4322 0.312346 62.236Z" fill="white"/>
</svg>
