<svg width="478" height="156" viewBox="0 0 478 156" fill="none" xmlns="http://www.w3.org/2000/svg">
<path d="M473.245 37.4539C475.445 37.4539 477.223 39.2364 477.223 41.4383C477.223 43.6387 475.445 45.425 473.245 45.425C471.05 45.425 469.266 43.6387 469.266 41.4383C469.266 39.2364 471.05 37.4539 473.245 37.4539Z" stroke="#373535" stroke-width="1.23096" stroke-miterlimit="22.9256"/>
<path fill-rule="evenodd" clip-rule="evenodd" d="M471.575 43.6921V39.1439H473.593C473.993 39.1439 474.308 39.1828 474.514 39.2628C474.727 39.3452 474.895 39.49 475.019 39.6968C475.148 39.9051 475.21 40.1321 475.21 40.3839C475.21 40.7044 475.104 40.9788 474.899 41.198C474.685 41.4199 474.365 41.5604 473.927 41.6213C474.089 41.6984 474.208 41.7728 474.293 41.85C474.465 42.0109 474.633 42.2109 474.79 42.4532L475.582 43.6921H474.827L474.222 42.7439C474.046 42.4736 473.902 42.2623 473.787 42.1191C473.674 41.9743 473.568 41.8704 473.483 41.8133C473.392 41.754 473.302 41.7147 473.211 41.6931C473.139 41.6795 473.029 41.6727 472.872 41.6727H472.175V43.6921H471.575ZM472.175 41.1508H473.474C473.745 41.1508 473.959 41.1224 474.112 41.0641C474.27 41.0075 474.389 40.9179 474.47 40.7909C474.546 40.6651 474.589 40.5313 474.589 40.3839C474.589 40.1673 474.508 39.9916 474.351 39.8509C474.198 39.7131 473.949 39.6443 473.616 39.6443H472.175V41.1508Z" fill="#373535"/>
<path fill-rule="evenodd" clip-rule="evenodd" d="M198.53 42.7856C197.404 42.3948 195.811 39.6778 197.981 37.9615C199.952 36.4645 206.809 31.1667 209.689 28.9405C211.307 27.8047 212.605 28.577 212.605 28.577L218.417 30.8639C218.417 30.8639 199.355 42.269 198.53 42.7856Z" fill="#373535"/>
<path fill-rule="evenodd" clip-rule="evenodd" d="M238.083 83.7233C236.862 82.8359 234.644 82.9591 232.477 85.2488C225.001 93.1581 214.227 98.6301 202.977 100.225C186.841 102.555 173.304 95.7819 171.483 84.4876C171.249 82.9199 170.346 82.4047 169.593 82.4492C169.097 82.4696 167.932 82.7819 167.819 85.0987C167.708 86.9109 167.799 88.7531 168.085 90.5571C169.818 101.905 181.888 112.613 201.607 111.134C217.3 109.946 231.684 101.423 238.264 89.3956C239.872 86.4835 239.228 84.5537 238.083 83.7233Z" fill="#373535"/>
<path fill-rule="evenodd" clip-rule="evenodd" d="M171.501 78.7939C172.036 78.9696 173.085 78.9869 173.944 77.2801C175.013 75.1761 176.816 72.0897 179.336 69.444C182.638 65.5844 187.885 61.7648 194.117 58.6232C207.566 51.884 218.811 51.0847 221.924 54.2171C223.196 55.5032 223.126 57.5521 221.694 60.3055C214.729 74.2777 187.652 74.9636 184.584 75.0025C183.11 75.0161 181.764 75.9388 181.373 77.172C181.082 78.1377 181.43 79.0845 182.251 79.6699C185.29 81.7596 189.823 82.666 197.9 82.762C203.706 82.8469 223.317 81.5907 231.733 62.0516L231.742 61.9893C234.232 55.23 232.071 51.2497 229.795 49.0883C223.974 43.5217 210.701 43.7273 196.731 49.5969C185.686 54.2455 176.316 61.8744 172.288 69.5159C171.52 70.9913 170.567 73.5123 170.233 76.1497C170.065 77.4521 170.576 78.5247 171.501 78.7939Z" fill="#373535"/>
<path fill-rule="evenodd" clip-rule="evenodd" d="M309.655 63.0618C309.655 63.0618 308.196 63.1825 307.132 61.9314C304.541 58.5986 301.688 56.1008 298.562 54.4494C295.104 52.6157 291.133 51.6987 286.716 51.6987C279.755 51.6987 273.806 54.2695 268.862 59.4064C263.938 64.551 261.462 70.6629 261.462 77.7427C261.462 85.2923 263.91 91.6487 268.815 96.8123C273.7 101.987 279.649 104.571 286.654 104.571C290.962 104.571 294.874 103.677 298.358 101.886C301.444 100.288 304.177 98.0013 306.559 95.0121C307.584 93.7316 308.987 93.8477 308.987 93.8477H314.756C311.907 99.1628 308.071 103.266 303.271 106.165C298.481 109.066 293.09 110.522 287.126 110.522C277.951 110.522 270.303 107.395 264.178 101.14C258.051 94.8784 254.983 87.0667 254.983 77.6939C254.983 73.327 255.818 69.1831 257.458 65.2691C259.128 61.355 261.552 57.8333 264.759 54.6902C267.726 51.7109 271.057 49.4695 274.768 47.9399C278.466 46.4093 282.469 45.6436 286.788 45.6436C292.985 45.6436 298.562 47.1667 303.515 50.2013C308.486 53.2121 312.418 57.5059 315.31 63.0618H309.655Z" fill="#373535"/>
<path fill-rule="evenodd" clip-rule="evenodd" d="M361.508 109.239H336.197C336.197 109.239 333.358 109.049 333.358 106.342C333.358 103.631 333.358 46.8121 333.358 46.8121C333.358 46.8121 335.047 46.8121 336.489 46.8121C337.92 46.8121 339.518 47.8764 339.518 49.6971C339.518 60.4491 339.518 97.6808 339.518 100.18C339.518 103.231 342.433 103.185 342.433 103.185H361.508V109.239Z" fill="#373535"/>
<path fill-rule="evenodd" clip-rule="evenodd" d="M450.811 55.8017V109.239C450.811 109.239 450.534 109.239 447.647 109.239C444.756 109.239 444.65 106.292 444.65 106.292V55.8304C444.65 55.8304 444.703 52.9697 441.726 52.9697C438.748 52.9697 432.231 52.9697 432.231 52.9697V46.8121H463.234V52.9697C463.234 52.9697 456.593 52.9697 453.716 52.9697C450.853 52.9697 450.811 55.8017 450.811 55.8017Z" fill="#373535"/>
<path fill-rule="evenodd" clip-rule="evenodd" d="M384.067 91.6607L378.088 107.307C378.088 107.307 377.329 109.239 375.277 109.239C373.188 109.239 370.955 109.239 370.955 109.239L395.092 46.8797H402.445L426.558 109.239C426.558 109.239 424.077 109.239 421.983 109.239C419.884 109.239 419.239 107.24 419.239 107.24L413.266 91.5605C413.266 91.5605 412.579 89.7336 410.488 89.7336C404.658 89.7336 388.393 89.7336 386.776 89.7336C384.82 89.7336 384.067 91.6607 384.067 91.6607ZM390.998 84.1168C392.034 84.1168 400.875 84.1168 406.271 84.1168C407.989 84.1208 409.816 82.5305 408.914 80.1188C406.853 74.6913 403.217 65.0635 401.371 60.096C400.245 57.1581 396.819 57.7697 395.87 60.0771C395.512 60.9736 390.745 73.8705 388.322 80.3883C387.583 82.456 389.301 84.1209 390.998 84.1168Z" fill="#373535"/>
<path fill-rule="evenodd" clip-rule="evenodd" d="M136.137 31.6777C123.943 14.5213 107.354 4.15206 86.8448 0.900193C78.5132 -0.432074 70.1053 -0.283536 61.8611 1.33366C53.678 2.96006 45.7583 6.057 38.3232 10.5509C28.5615 16.4586 20.2896 24.3726 13.7268 34.0505C7.15802 43.7329 2.93588 54.2274 1.17614 65.2111C-2.30812 87.1407 1.95548 106.932 13.8817 124.048C25.8164 141.224 42.5186 151.63 63.5282 154.972C84.0699 158.249 102.875 153.419 119.438 140.613C135.927 127.834 146.075 110.265 149.565 88.3755C152.833 67.8927 148.329 48.8137 136.137 31.6777ZM143.581 87.4193C140.346 107.749 130.977 124.035 115.739 135.833C100.551 147.573 83.2996 151.997 64.4863 149.007C45.1662 145.934 29.8049 136.376 18.8296 120.618C7.85227 104.808 3.91175 86.4986 7.15802 66.1666C8.76842 56.0534 12.6591 46.3906 18.7324 37.4362C24.8024 28.4757 32.4423 21.1793 41.4545 15.7235C48.2861 11.5914 55.5473 8.75672 63.0405 7.26565C70.5656 5.78672 78.2604 5.64272 85.8958 6.85525C104.735 9.86112 119.986 19.3866 131.196 35.1711C142.436 50.9782 146.601 68.5613 143.581 87.4193Z" fill="#373535"/>
<path fill-rule="evenodd" clip-rule="evenodd" d="M37.7403 43.0483C38.3416 42.6761 52.0315 34.4821 52.0315 34.4821L47.8592 32.8418C47.8592 32.8418 46.926 32.2903 45.7661 33.1071C43.6885 34.7009 38.7729 38.5035 37.3517 39.5849C35.7988 40.8286 36.9405 42.7717 37.7403 43.0483Z" fill="#373535"/>
<path fill-rule="evenodd" clip-rule="evenodd" d="M18.3289 68.9326C18.716 69.0395 19.47 69.0784 20.0804 67.8436C20.8577 66.3175 22.1508 64.1035 23.9608 62.1967C26.3332 59.4388 30.0904 56.6872 34.5789 54.4415C44.2485 49.5881 52.3257 49.0156 54.5629 51.2621C55.4775 52.1972 55.4197 53.656 54.3901 55.6456C49.3868 65.6863 29.9252 66.1803 27.7225 66.1951C26.6669 66.2128 25.6941 66.8727 25.4185 67.7601C25.2216 68.4416 25.4465 69.1386 26.0607 69.5508C28.226 71.0642 31.4881 71.6972 37.2965 71.7854C41.4773 71.8455 55.5606 70.9232 61.592 56.8951L61.6097 56.8497C62.0841 55.5549 62.3097 54.4108 62.374 53.3859C64.9471 60.8859 69.8337 67.2423 76.0721 70.6526C78.1683 71.8031 79.5531 71.3386 80.1511 70.5256C80.7909 69.6435 80.7024 68.0673 79.0689 66.508C73.3808 61.1191 69.4485 53.3908 68.278 45.2984C66.6116 33.7088 71.5026 23.98 79.6006 22.6731C80.7312 22.504 81.1027 21.8645 81.0695 21.3165C81.0588 20.9601 80.8192 20.1229 79.168 20.0436C77.8656 19.9684 76.5465 20.0369 75.2532 20.2296C67.0879 21.4753 59.3875 30.1504 60.4717 44.3234C60.5784 45.7504 60.7715 47.1628 61.0417 48.5507C60.7779 48.192 60.5005 47.8647 60.2129 47.5925C56.0353 43.5859 46.4901 43.7344 36.4532 47.9434C28.5219 51.2931 21.788 56.7746 18.8887 62.2564C18.3323 63.32 17.6557 65.1368 17.4124 67.0118C17.2929 67.9616 17.6623 68.7342 18.3289 68.9326Z" fill="#373535"/>
<path fill-rule="evenodd" clip-rule="evenodd" d="M119.776 52.2145C119.776 52.2145 120.332 51.2817 119.509 50.1128C117.913 48.0616 114.111 43.1346 113.038 41.7066C111.793 40.1473 109.836 41.2845 109.581 42.1062C109.926 42.6928 118.132 56.4004 118.132 56.4004L119.776 52.2145Z" fill="#373535"/>
<path fill-rule="evenodd" clip-rule="evenodd" d="M112.85 112.743C112.263 113.119 98.5566 121.31 98.5566 121.31L102.733 122.95C102.733 122.95 103.694 123.499 104.838 122.69C106.911 121.091 111.827 117.289 113.248 116.214C114.801 114.967 113.686 113.02 112.85 112.743Z" fill="#373535"/>
<path fill-rule="evenodd" clip-rule="evenodd" d="M110.637 63.6283C108.735 63.7719 106.878 64.1174 105.053 64.5482C109.037 60.3699 108.891 50.8342 104.666 40.8049C101.335 32.8723 95.8536 26.1399 90.3645 23.2659C89.3006 22.6953 87.4944 22.0153 85.5948 21.7658C84.6673 21.6562 83.8895 22.0323 83.6884 22.6775C83.5747 23.0663 83.5573 23.8208 84.7874 24.4433C86.303 25.2117 88.5319 26.5104 90.4111 28.3068C93.1841 30.7018 95.9306 34.4643 98.1969 38.9359C103.039 48.5949 103.605 56.6797 101.356 58.9077C100.435 59.8302 98.9536 59.7796 96.9863 58.7528C86.952 53.74 86.4497 34.287 86.4259 32.0915C86.41 31.0265 85.7452 30.0623 84.8635 29.7902C84.1711 29.569 83.485 29.8075 83.0613 30.4055C81.5741 32.5946 80.9151 35.8491 80.8401 41.6537C80.7911 45.8309 81.6868 59.9122 95.7209 65.9534L95.7788 65.9758C96.8136 66.3564 97.7411 66.5589 98.6013 66.6662C92.4097 69.4295 87.2688 73.8497 84.3056 79.2574C83.1571 81.3535 83.6064 82.7319 84.4382 83.3298C85.3064 83.9667 86.901 83.8896 88.4457 82.232C93.8553 76.5505 101.572 72.6243 109.654 71.4606C121.258 69.7911 130.986 74.6604 132.289 82.7784C132.465 83.9044 133.098 84.2645 133.64 84.2498C133.989 84.2259 134.83 84.0068 134.919 82.3441C134.988 81.0425 134.919 79.7121 134.729 78.4262C133.478 70.2678 124.809 62.5681 110.637 63.6283Z" fill="#373535"/>
<path fill-rule="evenodd" clip-rule="evenodd" d="M132.277 86.8704C131.891 86.7441 131.147 86.7313 130.515 87.9585C129.749 89.4787 128.456 91.6885 126.635 93.5885C124.261 96.3616 120.498 99.0999 116.019 101.366C106.358 106.216 98.2903 106.781 96.0483 104.524C95.1245 103.605 95.1845 102.136 96.2107 100.158C101.226 90.1167 120.671 89.6136 122.886 89.594C123.937 89.586 124.895 88.934 125.182 88.0383C125.391 87.3459 125.142 86.6481 124.533 86.2501C122.361 84.7316 119.109 84.0864 113.309 84.0165C109.132 83.9583 95.0395 84.8571 89.0164 98.9033L88.9884 98.9384C88.3685 100.632 88.1687 102.068 88.2159 103.305C85.7237 95.4836 80.6844 88.8419 74.2392 85.2967C72.1488 84.1541 70.7609 84.6175 70.1565 85.4425C69.5189 86.3273 69.6096 87.8988 71.2519 89.4632C76.9268 94.8353 80.8461 102.58 82.0167 110.652C83.688 122.244 78.8279 131.971 70.6925 133.294C69.5719 133.469 69.2163 134.109 69.2367 134.646C69.2645 134.989 69.4845 135.835 71.1396 135.921C72.4492 135.992 73.7637 135.923 75.0703 135.727C83.2292 134.476 90.9129 125.813 89.84 111.635C89.7069 109.848 89.3977 108.102 89.0107 106.381C89.4015 107.123 89.8804 107.74 90.3816 108.218C94.578 112.217 104.121 112.075 114.144 107.855C122.083 104.511 128.819 99.0348 131.695 93.5515C132.271 92.4672 132.949 90.6655 133.181 88.7753C133.307 87.8263 132.936 87.0707 132.277 86.8704Z" fill="#373535"/>
<path fill-rule="evenodd" clip-rule="evenodd" d="M30.5301 103.738C30.5301 103.738 29.9824 104.683 30.7875 105.83C32.3927 107.899 36.2081 112.832 37.2829 114.253C38.5313 115.813 40.4558 114.675 40.7314 113.854C40.3689 113.261 32.1726 99.5515 32.1726 99.5515L30.5301 103.738Z" fill="#373535"/>
<path fill-rule="evenodd" clip-rule="evenodd" d="M53.3369 97.2026C63.3644 102.217 63.8648 121.682 63.8856 123.877C63.8963 124.933 64.5584 125.911 65.4492 126.175C66.1385 126.392 66.8291 126.146 67.2433 125.544C68.7468 123.382 69.3957 120.113 69.4755 114.306C69.5284 110.13 68.6168 96.0411 54.5853 90.0063L54.5456 89.984C53.4639 89.5879 52.4967 89.3796 51.6044 89.2776C57.9691 86.5254 63.2744 82.0542 66.2905 76.5422C67.45 74.4449 66.9791 73.0665 66.156 72.4713C65.2836 71.8253 63.694 71.9144 62.1473 73.56C56.7567 79.2434 49.0237 83.1757 40.9465 84.339C29.3631 86.0009 19.6259 81.1317 18.3113 73.0182C18.1424 71.8957 17.4927 71.5218 16.9563 71.5486C16.5931 71.566 15.7643 71.7853 15.6833 73.4433C15.6032 74.7578 15.6727 76.0852 15.8784 77.3759C17.1159 85.5328 25.7823 93.2322 39.9532 92.1727C41.7935 92.0337 43.5884 91.7061 45.3549 91.2967C45.33 91.3235 45.2975 91.3495 45.2725 91.3756C41.2621 95.5743 41.4284 105.13 45.6429 115.142C48.9803 123.09 54.4545 129.804 59.9439 132.701C61.0019 133.261 62.8213 133.954 64.7125 134.191C65.6491 134.314 66.4345 133.928 66.6117 133.27C66.738 132.882 66.7603 132.132 65.5357 131.518C64.0115 130.754 61.7909 129.448 59.8952 127.642C57.118 125.266 54.3748 121.505 52.1244 117.005C47.2673 107.361 46.7024 99.2839 48.9599 97.0457C49.8869 96.1322 51.3539 96.1965 53.3369 97.2026Z" fill="#373535"/>
</svg>
