<svg width="462" height="156" viewBox="0 0 462 156" fill="none" xmlns="http://www.w3.org/2000/svg">
<!-- Emblem (pink) -->
<path d="M63.5286 154.972C84.07 158.249 102.875 153.419 119.438 140.613C135.926 127.835 146.075 110.265 149.565 88.3756C152.834 67.8928 148.33 48.8134 136.138 31.6774C123.944 14.521 107.354 4.15191 86.845 0.900018C78.5134 -0.432249 70.1049 -0.283588 61.8606 1.33361C53.6778 2.96001 45.7583 6.05675 38.3235 10.5504C28.5618 16.4581 20.2896 24.3725 13.7268 34.0504C7.158 43.7328 2.93575 54.2278 1.17602 65.2115C-2.30811 87.141 1.95589 106.933 13.8821 124.048C25.8167 141.224 42.5191 151.63 63.5286 154.972ZM115.739 135.833C100.551 147.573 83.2998 151.997 64.4866 149.007C45.1665 145.934 29.8047 136.376 18.8293 120.618C7.85201 104.808 3.91218 86.4986 7.15844 66.1666C8.76884 56.0534 12.6593 46.3906 18.7327 37.4362C24.8026 28.4757 32.4421 21.179 41.4543 15.7233C48.2859 11.5912 55.5471 8.75633 63.0403 7.26525C70.5653 5.78632 78.2604 5.64256 85.8957 6.8551C104.735 9.86096 119.986 19.387 131.196 35.1715C142.436 50.9786 146.601 68.5616 143.58 87.4195C140.346 107.749 130.977 124.035 115.739 135.833ZM37.2961 71.7858C41.4769 71.8459 55.5607 70.9232 61.592 56.8951L61.6096 56.8492C62.0839 55.5546 62.31 54.4102 62.3743 53.3854C64.9473 60.8854 69.8341 67.2427 76.0725 70.6529C78.168 71.8029 79.5525 71.3386 80.1506 70.526C80.7905 69.6439 80.702 68.0677 79.0686 66.5084C73.3805 61.1195 69.4481 53.3908 68.2776 45.2985C66.6112 33.7089 71.5028 23.9804 79.6008 22.6735C80.7313 22.5044 81.1028 21.864 81.0696 21.316C81.0587 20.9594 80.8185 20.1229 79.1682 20.0436C77.8658 19.9684 76.5465 20.0365 75.2532 20.2291C67.0879 21.4748 59.3878 30.1502 60.4719 44.3229C60.5786 45.7498 60.771 47.1626 61.0413 48.5504C60.7775 48.1919 60.5006 47.8644 60.2131 47.5924C56.0356 43.5858 46.4902 43.7342 36.4534 47.943C28.5221 51.2927 21.7883 56.7746 18.8889 62.2565C18.3325 63.32 17.6557 65.1365 17.4123 67.0113C17.2929 67.9612 17.6627 68.7338 18.3293 68.9322C18.7165 69.0391 19.4701 69.0778 20.0803 67.8434C20.8577 66.3172 22.1512 64.1036 23.9612 62.1969C26.3336 59.439 30.0908 56.6868 34.5793 54.441C44.2487 49.5879 52.3256 49.0158 54.5627 51.2623C55.4772 52.1973 55.4193 53.6557 54.3899 55.6451C49.3869 65.6852 29.9275 66.1801 27.7229 66.1949C26.6673 66.2127 25.6938 66.8729 25.4182 67.7604C25.2214 68.4417 25.4468 69.1382 26.0608 69.5504C28.2261 71.0637 31.488 71.6976 37.2961 71.7858ZM133.64 84.2496C133.989 84.2257 134.83 84.0064 134.919 82.3444C134.988 81.0428 134.919 79.7122 134.729 78.4264C133.478 70.268 124.809 62.5683 110.637 63.6285C108.735 63.7721 106.878 64.1177 105.053 64.5485C109.037 60.3702 108.89 50.8345 104.665 40.8053C101.335 32.8728 95.8535 26.1403 90.3645 23.2662C89.3007 22.6956 87.4945 22.0157 85.595 21.7662C84.6676 21.6566 83.8899 22.0323 83.6887 22.6774C83.575 23.0661 83.5574 23.8205 84.7873 24.443C86.3029 25.2114 88.5322 26.5099 90.4114 28.3063C93.1844 30.7013 95.9303 34.4646 98.1965 38.9362C103.039 48.5951 103.605 56.6798 101.356 58.9078C100.435 59.8302 98.9537 59.7792 96.9866 58.7526C86.9523 53.7398 86.4499 34.2869 86.426 32.0914C86.4101 31.0265 85.7451 30.0629 84.8635 29.7906C84.1711 29.5694 83.4855 29.8079 83.0618 30.4059C81.5746 32.5949 80.915 35.8494 80.8401 41.6539C80.7911 45.8315 81.6871 59.9127 95.7209 65.9537L95.7786 65.9762C96.8132 66.3567 97.7407 66.5593 98.6008 66.6666C92.4095 69.43 87.269 73.8499 84.3059 79.2574C83.1575 81.3533 83.6061 82.7317 84.4377 83.3297C85.3058 83.9666 86.9009 83.8895 88.4456 82.232C93.8552 76.5506 101.572 72.6243 109.655 71.4606C121.258 69.7913 130.986 74.6603 132.289 82.7779C132.465 83.9039 133.098 84.2643 133.64 84.2496ZM37.7405 43.0485C38.3446 42.6745 52.0315 34.482 52.0315 34.482L47.8596 32.8424C47.8596 32.8424 46.9257 32.2902 45.7659 33.107C43.6883 34.7008 38.773 38.5042 37.3518 39.5856C35.7992 40.8293 36.9408 42.7718 37.7405 43.0485ZM119.777 52.2145C119.788 52.1947 120.324 51.2692 119.509 50.1129C117.914 48.0617 114.111 43.1347 113.038 41.7067C111.794 40.1477 109.836 41.2844 109.58 42.1061C109.925 42.6926 118.132 56.401 118.132 56.401L119.777 52.2145ZM64.7122 134.191C65.6485 134.314 66.4342 133.928 66.6116 133.27C66.7378 132.883 66.7599 132.132 65.5354 131.518C64.0111 130.754 61.7905 129.448 59.8948 127.642C57.1176 125.266 54.3746 121.505 52.1243 117.005C47.2672 107.361 46.7018 99.2838 48.9592 97.0455C49.8863 96.1322 51.3533 96.1968 53.3362 97.2028C63.3636 102.217 63.8642 121.683 63.885 123.878C63.8958 124.934 64.5579 125.911 65.4485 126.175C66.1377 126.392 66.8281 126.146 67.2424 125.545C68.7459 123.383 69.3951 120.113 69.4748 114.306C69.5278 110.131 68.6164 96.0413 54.5852 90.0065L54.5452 89.984C53.4634 89.5879 52.496 89.3799 51.6038 89.2779C57.9684 86.5257 63.2741 82.0546 66.2903 76.5426C67.4497 74.4453 66.9786 73.0665 66.1555 72.4713C65.2831 71.8253 63.6934 71.9146 62.1467 73.5602C56.7561 79.2435 49.0227 83.1761 40.9456 84.3395C29.3623 86.0011 19.6253 81.1315 18.3108 73.0182C18.1418 71.8958 17.4917 71.5217 16.9553 71.5485C16.5919 71.5661 15.7639 71.786 15.6829 73.443C15.6027 74.7575 15.6724 76.0859 15.8782 77.3766C17.1159 85.5333 25.7819 93.2318 39.9524 92.1725C41.7927 92.0334 43.5882 91.7058 45.3547 91.2965C45.3298 91.3233 45.2967 91.3495 45.2717 91.3756C41.2614 95.5742 41.4284 105.13 45.6428 115.142C48.9802 123.089 54.4543 129.804 59.9436 132.702C61.0016 133.261 62.8211 133.954 64.7122 134.191ZM71.1399 135.921C72.4494 135.992 73.7641 135.924 75.0706 135.727C83.2294 134.476 90.913 125.814 89.8401 111.635C89.707 109.849 89.398 108.102 89.011 106.38C89.4017 107.122 89.88 107.74 90.3811 108.218C94.5775 112.218 104.121 112.075 114.144 107.855C122.083 104.511 128.819 99.0347 131.695 93.5514C132.271 92.4672 132.949 90.6659 133.181 88.776C133.307 87.8269 132.936 87.071 132.277 86.8707C131.89 86.7445 131.147 86.7319 130.515 87.9586C129.749 89.4787 128.456 91.6885 126.635 93.5885C124.261 96.3616 120.498 99.0997 116.019 101.366C106.358 106.216 98.2901 106.781 96.0481 104.524C95.1247 103.605 95.1842 102.135 96.2102 100.158C101.226 90.1168 120.671 89.614 122.886 89.5944C123.937 89.5863 124.896 88.9343 125.182 88.0387C125.392 87.3463 125.141 86.6486 124.532 86.2506C122.361 84.7322 119.108 84.0871 113.309 84.0172C109.131 83.959 95.0397 84.8582 89.0168 98.9039L88.9885 98.9391C88.3688 100.632 88.1689 102.068 88.2161 103.304C85.7239 95.4836 80.6846 88.8417 74.2395 85.2965C72.1491 84.154 70.7609 84.6179 70.1565 85.443C69.519 86.3278 69.61 87.8992 71.2522 89.4635C76.927 94.8356 80.8463 102.581 82.0168 110.653C83.688 122.244 78.8278 131.971 70.6926 133.295C69.5722 133.469 69.2163 134.109 69.2366 134.646C69.2644 134.989 69.4848 135.835 71.1399 135.921ZM37.2825 114.253C38.5307 115.812 40.4556 114.676 40.7317 113.855C40.3692 113.262 32.1731 99.5514 32.1731 99.5514L30.5305 103.738C30.5305 103.738 29.9823 104.683 30.7873 105.831C32.3924 107.899 36.2072 112.831 37.2825 114.253ZM102.733 122.95C102.733 122.95 103.694 123.499 104.838 122.69C106.911 121.091 111.827 117.288 113.248 116.213C114.801 114.967 113.686 113.019 112.85 112.743C112.265 113.118 98.6257 121.269 98.5569 121.31L102.733 122.95Z" fill="#F66D8C"/>
<!-- Text (dark) -->
<g transform="translate(166, 36.5)">
<path d="M30.7578 14.4645C31.584 13.9472 50.5808 2.58015 50.6436 2.5426L44.833 0.25647C44.833 0.25647 43.5347 -0.515859 41.917 0.619751C39.0365 2.84584 32.1803 8.14272 30.209 9.64026C28.0384 11.3565 29.631 14.0736 30.7578 14.4645ZM30.1279 54.441C35.9346 54.5259 55.5439 53.2687 63.96 33.7301L63.9697 33.6686C66.4596 26.9095 64.2988 22.9287 62.0225 20.7672C56.2017 15.2007 42.9285 15.4065 28.959 21.276C17.9134 25.9245 8.54309 33.5535 4.51562 41.1949C3.74724 42.6704 2.79395 45.1914 2.45996 47.8287C2.29216 49.1309 2.80381 50.2029 3.72852 50.4723C4.26292 50.648 5.31223 50.6654 6.1709 48.9586C7.23944 46.8546 9.04367 43.7684 11.5635 41.1227C14.8649 37.2631 20.1128 33.444 26.3447 30.3024C39.7934 23.5632 51.0392 22.7637 54.1514 25.8961C55.4236 27.1822 55.3528 29.231 53.9209 31.984C46.956 45.9557 19.8822 46.6423 16.8115 46.6813C15.3375 46.6949 13.9914 47.618 13.6006 48.8512C13.31 49.8168 13.6576 50.764 14.4785 51.3492C17.5176 53.4387 22.0516 54.345 30.1279 54.441ZM119.354 82.2018C125.318 82.2017 130.709 80.7451 135.499 77.8444C140.299 74.9459 144.134 70.8419 146.983 65.527H141.214C141.189 65.525 139.803 65.4226 138.787 66.691C136.405 69.6802 133.671 71.9679 130.585 73.5651C127.101 75.3567 123.189 76.2506 118.881 76.2506C111.877 76.2506 105.927 73.6663 101.042 68.4918C96.1365 63.3282 93.6885 56.9711 93.6885 49.4215C93.6886 42.3418 96.1657 36.2301 101.09 31.0856C106.033 25.9488 111.982 23.3776 118.943 23.3776C123.361 23.3776 127.332 24.2948 130.79 26.1285C133.916 27.7799 136.769 30.2783 139.359 33.611C140.424 34.8615 141.883 34.7408 141.883 34.7408H147.537C144.645 29.185 140.714 24.8913 135.742 21.8805C130.79 18.846 125.212 17.3229 119.016 17.3229C114.697 17.3229 110.694 18.0882 106.996 19.6188C103.285 21.1484 99.9535 23.3904 96.9863 26.3698C93.78 29.5127 91.3556 33.0339 89.6855 36.9479C88.0452 40.8618 87.211 45.0059 87.2109 49.3727C87.2109 58.7455 90.2786 66.5571 96.4053 72.819C102.53 79.0742 110.179 82.2018 119.354 82.2018ZM193.735 74.8639H174.66C174.647 74.8641 171.746 74.9032 171.746 71.859V21.3766C171.746 19.5559 170.147 18.4908 168.716 18.4908H165.585C165.585 18.4908 165.585 75.3107 165.585 78.0211C165.585 80.7134 168.393 80.9155 168.424 80.9176H193.735V74.8639ZM283.038 27.4811C283.038 27.4811 283.08 24.6491 285.943 24.649H295.462V18.4908H264.458V24.649H273.953C276.918 24.649 276.878 27.486 276.878 27.5094V77.9703C276.878 77.9703 276.984 80.9176 279.875 80.9176H283.038V27.4811ZM207.505 80.9176C209.556 80.9175 210.315 78.986 210.315 78.986L216.294 63.3395C216.302 63.3183 217.058 61.4128 219.003 61.4127H242.716C244.807 61.4127 245.494 63.2399 245.494 63.2399L251.466 78.9196C251.474 78.9455 252.125 80.9175 254.21 80.9176H258.785L234.673 18.5592H227.319L203.182 80.9176H207.505ZM223.226 55.7955C221.528 55.7997 219.81 54.1347 220.549 52.067C222.972 45.5501 227.738 32.6561 228.097 31.7565C229.046 29.4492 232.472 28.8374 233.599 31.775C235.444 36.7424 239.081 46.37 241.142 51.7975C242.044 54.209 240.217 55.7993 238.499 55.7955H223.226ZM0.3125 62.236C2.04503 73.5844 14.116 84.2924 33.835 82.8131C49.5274 81.6256 63.9115 73.1019 70.4912 61.0748C72.0991 58.1631 71.4558 56.2335 70.3105 55.403C69.0895 54.5155 66.8709 54.6386 64.7041 56.9283C57.2279 64.8374 46.4545 70.3092 35.2051 71.9039C19.0688 74.2339 5.53169 67.4609 3.70996 56.1666C3.47593 54.599 2.57349 54.084 1.82031 54.1285C1.32384 54.1491 0.159605 54.4617 0.0458984 56.778C-0.0648823 58.5901 0.0261402 60.4321 0.3125 62.236Z" fill="#1A1714"/>
</g>
</svg>
