<svg width="72" height="83" viewBox="0 0 72 83" fill="none" xmlns="http://www.w3.org/2000/svg">
<path d="M30.7568 14.4646C31.5819 13.9479 50.6436 2.54272 50.6436 2.54272L44.832 0.256592C44.832 0.256592 43.5337 -0.51586 41.916 0.619873C39.0352 2.84622 32.1787 8.14327 30.208 9.64038C28.0377 11.3564 29.6301 14.0732 30.7568 14.4646ZM30.127 54.4412C35.9331 54.5261 55.5437 53.2693 63.96 33.7302L63.9688 33.6687C66.4587 26.9094 64.2979 22.9288 62.0215 20.7673C56.2007 15.2008 42.9276 15.4065 28.958 21.2761C17.9125 25.9247 8.54305 33.5537 4.51562 41.1951C3.74723 42.6705 2.79395 45.1914 2.45996 47.8289C2.29216 49.1312 2.80362 50.2032 3.72852 50.4724C4.26295 50.6481 5.3123 50.6654 6.1709 48.9587C7.23945 46.8547 9.04371 43.7684 11.5635 41.1228C14.8649 37.2634 20.1121 33.444 26.3438 30.3025C39.7924 23.5633 51.0383 22.7638 54.1504 25.8962C55.4228 27.1823 55.3529 29.231 53.9209 31.9841C46.9557 45.9564 19.8792 46.6425 16.8105 46.6814C15.3366 46.695 13.9904 47.6181 13.5996 48.8513C13.3092 49.8168 13.6569 50.7631 14.4775 51.3484C17.5166 53.4381 22.0502 54.3452 30.127 54.4412ZM0.3125 62.2361C2.04503 73.5844 14.1152 84.2925 33.834 82.8132C49.5266 81.6258 63.9115 73.1021 70.4912 61.075C72.0993 58.1628 71.4552 56.2325 70.3096 55.4021C69.0884 54.5148 66.8707 54.6389 64.7041 56.9285C57.2278 64.8377 46.4538 70.3094 35.2041 71.9041C19.068 74.234 5.53171 67.4609 3.70996 56.1667C3.47597 54.5991 2.57349 54.0842 1.82031 54.1287C1.32405 54.1491 0.159632 54.4613 0.0458984 56.7781C-0.0648792 58.5902 0.0261229 60.4322 0.3125 62.2361Z" fill="#F66D8C"/>
</svg>
