<svg width="113" height="102" viewBox="0 0 113 102" fill="none" xmlns="http://www.w3.org/2000/svg">
<path fill-rule="evenodd" clip-rule="evenodd" d="M100.693 0C101.208 1.7579 101.702 3.5824 102.176 5.47349C104.284 10.1221 107.895 12.6686 113.009 13.1136C105.426 14.1611 101.397 18.5323 100.921 26.2271C100.365 18.5246 96.2599 14.1154 88.606 12.9995C96.3297 12.1172 100.359 7.78398 100.693 0Z" fill="#F66D8C"/>
<path fill-rule="evenodd" clip-rule="evenodd" d="M32.731 11.6311C36.4651 11.6318 40.19 11.822 43.906 12.2013C51.4927 13.1879 59.0947 14.0239 66.7122 14.7099C69.2969 14.8621 71.8817 14.8621 74.4663 14.7099C77.8907 14.2723 81.3116 13.8921 84.7291 13.5696C80.4099 16.6831 75.6206 18.7357 70.3612 19.7273C65.236 20.7239 60.0665 21.1039 54.853 20.8676C46.4127 20.1326 37.9744 19.4103 29.5381 18.701C24.602 18.4586 19.9646 19.4849 15.6264 21.7799C12.0928 23.9419 10.1542 27.0967 9.81078 31.2444C8.78085 28.9104 8.78085 26.5539 9.81078 24.1745C11.6476 20.0571 14.5743 16.9782 18.5912 14.938C23.1296 12.9794 27.843 11.8772 32.731 11.6311Z" fill="#F66D8C"/>
<path fill-rule="evenodd" clip-rule="evenodd" d="M88.3782 15.7362C90.1577 15.9793 91.8301 16.5495 93.3955 17.4467C93.8126 17.7005 94.0028 18.0426 93.9657 18.4729C88.9618 23.0205 84.0963 27.7336 79.3697 32.6128C71.5396 41.2032 63.7094 49.7934 55.8793 58.3838C50.168 64.4017 44.0484 69.9132 37.5203 74.9183C32.1317 78.6998 26.354 81.8167 20.1876 84.2688C15.0437 86.1978 9.95038 88.1742 4.90747 90.1984C23.703 71.0987 42.6321 52.1696 61.6949 33.411C67.9632 27.6748 74.805 22.7334 82.2205 18.587C84.2938 17.6257 86.3464 16.6754 88.3782 15.7362Z" fill="#F66D8C"/>
<path fill-rule="evenodd" clip-rule="evenodd" d="M58.5016 22.122C59.1099 22.2741 59.7179 22.426 60.3261 22.5781C49.352 23.1993 38.4812 24.6058 27.7133 26.7972C22.6503 27.8641 18.355 30.2588 14.8278 33.9812C13.2345 36.2967 12.5882 38.8054 12.8892 41.5072C11.7446 40.0862 11.2125 38.4519 11.2928 36.6039C11.8422 31.493 14.2747 27.54 18.5908 24.7447C22.1581 22.5421 26.0352 21.2496 30.222 20.8676C33.7188 20.7155 37.2159 20.7155 40.7128 20.8676C46.6381 21.3614 52.5677 21.7796 58.5016 22.122Z" fill="#F66D8C"/>
<path fill-rule="evenodd" clip-rule="evenodd" d="M103.202 63.8574C104.622 65.7382 105.116 67.8668 104.685 70.2432C104.186 73.5656 102.894 76.5304 100.808 79.1376C96.8662 83.8347 91.8867 86.8376 85.8695 88.146C80.1424 89.3757 74.3649 89.6797 68.5368 89.0583C59.4866 87.8717 50.4401 86.6552 41.3974 85.4093C37.7619 84.9771 34.1129 84.749 30.4504 84.7251C31.9563 84.4599 33.4768 84.3077 35.0117 84.269C47.7884 83.941 60.5599 83.4849 73.3261 82.9006C79.6804 82.5133 85.838 81.2209 91.7991 79.0235C96.3437 77.2654 99.8027 74.2625 102.176 70.0151C103.074 68.0574 103.417 66.0049 103.202 63.8574Z" fill="#F66D8C"/>
<path fill-rule="evenodd" clip-rule="evenodd" d="M105.696 77C106.476 81.0513 105.755 84.8583 103.534 88.4209C100.577 93.0202 96.6706 96.3816 91.8158 98.5054C86.9076 100.5 81.8259 101.634 76.5707 101.907C69.8601 102.201 63.1857 101.796 56.5473 100.692C47.9946 99.1792 39.4239 97.8024 30.8354 96.5614C23.2832 95.5352 15.7744 95.7782 8.3091 97.2904C5.34041 98.076 2.57194 99.3316 0.00394322 101.057C-0.0333731 100.323 0.194166 99.6745 0.686559 99.1129C5.29467 94.2412 10.7936 91.0417 17.1831 89.5144C25.2209 87.6839 33.3365 87.1979 41.5298 88.0564C52.6707 89.5939 63.8201 91.0519 74.9779 92.4304C81.9276 93.1405 88.678 92.2496 95.2289 89.7574C100.713 87.3449 104.202 83.0925 105.696 77Z" fill="#F66D8C"/>
</svg>
