<svg width="1424" height="1264" viewBox="0 0 1424 1264" fill="none" xmlns="http://www.w3.org/2000/svg">
<rect width="1424" height="1264" rx="188" fill="#FDFBFA"/>
<path fill-rule="evenodd" clip-rule="evenodd" d="M1172.95 100C1178.32 118.337 1183.47 137.369 1188.41 157.096C1210.41 205.587 1248.07 232.151 1301.42 236.792C1222.32 247.719 1180.29 293.318 1175.33 373.585C1169.53 293.237 1126.71 247.243 1046.86 235.603C1127.43 226.399 1169.46 181.198 1172.95 100Z" fill="#F66D8C"/>
<path fill-rule="evenodd" clip-rule="evenodd" d="M464.012 221.328C502.963 221.336 541.819 223.32 580.583 227.276C659.723 237.567 739.022 246.289 818.483 253.445C845.444 255.032 872.408 255.032 899.369 253.445C935.089 248.88 970.774 244.914 1006.42 241.55C961.368 274.028 911.409 295.439 856.547 305.783C803.084 316.179 749.159 320.143 694.775 317.678C606.73 310.01 518.707 302.476 430.706 295.077C379.215 292.548 330.84 303.254 285.587 327.194C248.727 349.747 228.505 382.655 224.922 425.922C214.179 401.576 214.179 376.993 224.922 352.173C244.083 309.223 274.613 277.106 316.514 255.824C363.856 235.393 413.023 223.895 464.012 221.328Z" fill="#F66D8C"/>
<path fill-rule="evenodd" clip-rule="evenodd" d="M1044.49 264.15C1063.05 266.686 1080.5 272.634 1096.83 281.993C1101.18 284.64 1103.16 288.209 1102.77 292.698C1050.58 340.135 999.822 389.3 950.517 440.196C868.839 529.806 787.159 619.413 705.481 709.023C645.903 771.798 582.068 829.291 513.971 881.5C457.76 920.947 397.491 953.46 333.167 979.039C279.509 999.161 226.379 1019.78 173.774 1040.89C369.837 841.657 567.294 644.2 766.145 448.523C831.532 388.686 902.902 337.14 980.255 293.888C1001.88 283.86 1023.29 273.947 1044.49 264.15Z" fill="#F66D8C"/>
<path fill-rule="evenodd" clip-rule="evenodd" d="M732.835 330.762C739.18 332.349 745.522 333.934 751.867 335.52C637.392 342.001 523.994 356.672 411.67 379.532C358.856 390.661 314.05 415.64 277.256 454.47C260.637 478.624 253.895 504.793 257.035 532.977C245.095 518.154 239.544 501.106 240.382 481.829C246.113 428.515 271.487 387.28 316.51 358.121C353.722 335.145 394.165 321.663 437.839 317.678C474.316 316.091 510.796 316.091 547.273 317.678C609.082 322.828 670.936 327.192 732.835 330.762Z" fill="#F66D8C"/>
<path fill-rule="evenodd" clip-rule="evenodd" d="M1199.12 766.121C1213.93 785.74 1219.09 807.943 1214.59 832.733C1209.39 867.39 1195.91 898.317 1174.14 925.514C1133.03 974.511 1081.09 1005.84 1018.32 1019.48C958.578 1032.31 898.311 1035.48 837.515 1029C743.109 1016.62 648.742 1003.93 554.414 990.936C516.491 986.428 478.427 984.049 440.222 983.799C455.931 981.032 471.792 979.446 487.802 979.041C621.081 975.62 754.305 970.862 887.474 964.767C953.758 960.728 1017.99 947.246 1080.17 924.324C1127.58 905.984 1163.66 874.66 1188.42 830.354C1197.79 809.932 1201.36 788.521 1199.12 766.121Z" fill="#F66D8C"/>
<path fill-rule="evenodd" clip-rule="evenodd" d="M1225.13 903.216C1233.27 945.476 1225.76 985.189 1202.58 1022.35C1171.74 1070.33 1130.99 1105.39 1080.35 1127.55C1029.15 1148.35 976.139 1160.18 921.32 1163.03C851.32 1166.1 781.697 1161.87 712.449 1150.36C623.232 1134.58 533.828 1120.21 444.238 1107.27C365.458 1096.56 287.131 1099.1 209.258 1114.87C178.29 1123.07 149.411 1136.16 122.624 1154.16C122.234 1146.5 124.608 1139.74 129.744 1133.88C177.813 1083.07 235.175 1049.69 301.826 1033.76C385.671 1014.66 470.328 1009.59 555.795 1018.55C672.011 1034.59 788.314 1049.8 904.705 1064.18C977.2 1071.58 1047.62 1062.29 1115.95 1036.29C1173.16 1011.13 1209.55 966.769 1225.13 903.216Z" fill="#F66D8C"/>
</svg>
