<svg width="392" height="91" viewBox="125 48 392 91" fill="none" xmlns="http://www.w3.org/2000/svg">
<path d="M192.561 48.376C192.219 51.8747 191.963 55.288 191.793 58.616C191.707 61.8587 191.665 64.3333 191.665 66.04C191.665 67.6613 191.707 69.24 191.793 70.776C191.878 72.2267 191.963 73.464 192.049 74.488H189.105C188.422 68.6 187.313 63.992 185.777 60.664C184.241 57.2507 182.15 54.8613 179.505 53.496C176.945 52.0453 173.574 51.32 169.393 51.32H162.353C159.793 51.32 157.83 51.5333 156.465 51.96C155.099 52.3867 154.161 53.2827 153.649 54.648C153.222 56.0133 153.009 58.104 153.009 60.92V126.456C153.009 129.187 153.222 131.277 153.649 132.728C154.161 134.093 155.099 134.989 156.465 135.416C157.83 135.843 159.793 136.056 162.353 136.056H169.649C174.001 136.056 177.627 135.245 180.529 133.624C183.515 132.003 185.905 129.357 187.697 125.688C189.489 121.933 190.811 116.813 191.665 110.328H194.609C194.353 112.973 194.225 116.387 194.225 120.568C194.225 122.36 194.267 124.963 194.353 128.376C194.523 131.789 194.779 135.331 195.121 139C190.769 138.829 185.862 138.744 180.401 138.744C174.939 138.659 170.075 138.616 165.809 138.616C163.846 138.616 161.243 138.616 158.001 138.616C154.843 138.616 151.387 138.659 147.633 138.744C143.963 138.744 140.209 138.787 136.369 138.872C132.614 138.872 129.03 138.915 125.617 139V136.44C128.433 136.269 130.523 135.928 131.889 135.416C133.339 134.904 134.278 133.88 134.705 132.344C135.217 130.808 135.473 128.504 135.473 125.432V61.944C135.473 58.7867 135.217 56.4827 134.705 55.032C134.278 53.496 133.339 52.472 131.889 51.96C130.523 51.3627 128.433 51.0213 125.617 50.936V48.376C129.03 48.4613 132.614 48.5467 136.369 48.632C140.209 48.632 143.963 48.6747 147.633 48.76C151.387 48.76 154.843 48.76 158.001 48.76C161.243 48.76 163.846 48.76 165.809 48.76C169.734 48.76 174.171 48.76 179.121 48.76C184.155 48.6747 188.635 48.5467 192.561 48.376ZM171.953 92.152C171.953 92.152 171.953 92.5787 171.953 93.432C171.953 94.2853 171.953 94.712 171.953 94.712H149.169C149.169 94.712 149.169 94.2853 149.169 93.432C149.169 92.5787 149.169 92.152 149.169 92.152H171.953ZM175.665 75.256C175.323 80.12 175.153 83.832 175.153 86.392C175.238 88.952 175.281 91.2987 175.281 93.432C175.281 95.5653 175.323 97.912 175.409 100.472C175.494 103.032 175.707 106.744 176.049 111.608H173.105C172.678 108.707 171.995 105.976 171.057 103.416C170.203 100.771 168.795 98.68 166.833 97.144C164.955 95.5227 162.225 94.712 158.641 94.712V92.152C161.286 92.152 163.419 91.5973 165.041 90.488C166.747 89.3787 168.113 87.9707 169.137 86.264C170.161 84.472 170.929 82.6373 171.441 80.76C172.038 78.7973 172.465 76.9627 172.721 75.256H175.665ZM288.189 48.376V50.936C285.458 51.192 283.367 51.832 281.917 52.856C280.466 53.7947 279.485 55.3307 278.973 57.464C278.546 59.512 278.333 62.456 278.333 66.296V139.384C277.565 139.299 276.711 139.256 275.773 139.256C274.919 139.256 273.981 139.299 272.957 139.384L218.045 64.76V120.056C218.045 124.152 218.301 127.352 218.813 129.656C219.325 131.875 220.434 133.496 222.141 134.52C223.933 135.459 226.621 136.099 230.205 136.44V139C228.583 138.829 226.493 138.744 223.933 138.744C221.373 138.659 218.941 138.616 216.637 138.616C214.589 138.616 212.498 138.659 210.365 138.744C208.317 138.744 206.61 138.829 205.245 139V136.44C208.061 136.099 210.151 135.459 211.517 134.52C212.967 133.581 213.906 132.045 214.333 129.912C214.845 127.779 215.101 124.835 215.101 121.08V61.944C215.101 58.7867 214.845 56.4827 214.333 55.032C213.906 53.496 212.967 52.472 211.517 51.96C210.151 51.3627 208.061 51.0213 205.245 50.936V48.376C206.61 48.4613 208.317 48.5467 210.365 48.632C212.498 48.7173 214.589 48.76 216.637 48.76C218.599 48.76 220.519 48.7173 222.397 48.632C224.274 48.5467 225.938 48.4613 227.389 48.376L275.389 112.248V67.32C275.389 63.1387 275.133 59.9387 274.621 57.72C274.109 55.5013 272.999 53.88 271.293 52.856C269.586 51.832 266.898 51.192 263.229 50.936V48.376C264.85 48.4613 266.941 48.5467 269.501 48.632C272.146 48.7173 274.578 48.76 276.797 48.76C278.93 48.76 281.021 48.7173 283.069 48.632C285.202 48.5467 286.909 48.4613 288.189 48.376ZM333.49 48.376V50.936C330.759 51.0213 328.668 51.3627 327.218 51.96C325.852 52.472 324.914 53.496 324.402 55.032C323.89 56.4827 323.634 58.7867 323.634 61.944V125.432C323.634 128.504 323.89 130.808 324.402 132.344C324.914 133.88 325.852 134.904 327.218 135.416C328.668 135.928 330.759 136.269 333.49 136.44V139C331.356 138.829 328.626 138.744 325.298 138.744C321.97 138.659 318.599 138.616 315.186 138.616C311.346 138.616 307.762 138.659 304.434 138.744C301.106 138.744 298.375 138.829 296.242 139V136.44C299.058 136.269 301.148 135.928 302.514 135.416C303.964 134.904 304.903 133.88 305.33 132.344C305.842 130.808 306.098 128.504 306.098 125.432V61.944C306.098 58.7867 305.842 56.4827 305.33 55.032C304.903 53.496 303.964 52.472 302.514 51.96C301.148 51.3627 299.058 51.0213 296.242 50.936V48.376C298.375 48.4613 301.106 48.5467 304.434 48.632C307.762 48.7173 311.346 48.76 315.186 48.76C318.599 48.76 321.97 48.7173 325.298 48.632C328.626 48.5467 331.356 48.4613 333.49 48.376ZM417.887 48.376C417.545 52.3013 417.289 56.1413 417.119 59.896C417.033 63.5653 416.991 66.3813 416.991 68.344C416.991 70.3067 417.033 72.1413 417.119 73.848C417.204 75.5547 417.289 77.048 417.375 78.328H414.431C413.236 71.5013 411.785 66.168 410.079 62.328C408.372 58.4027 406.111 55.5867 403.295 53.88C400.564 52.1733 396.937 51.32 392.415 51.32H388.319V124.28C388.319 127.779 388.617 130.381 389.215 132.088C389.897 133.795 391.22 134.947 393.183 135.544C395.145 136.056 398.004 136.355 401.759 136.44V139C399.199 138.829 395.871 138.744 391.775 138.744C387.679 138.659 383.497 138.616 379.231 138.616C374.793 138.616 370.612 138.659 366.687 138.744C362.847 138.744 359.732 138.829 357.343 139V136.44C361.012 136.355 363.828 136.056 365.791 135.544C367.753 134.947 369.076 133.795 369.759 132.088C370.441 130.381 370.783 127.779 370.783 124.28V51.32H366.559C362.121 51.32 358.495 52.1733 355.679 53.88C352.863 55.5867 350.601 58.4027 348.895 62.328C347.188 66.168 345.78 71.5013 344.671 78.328H341.727C341.897 77.048 341.983 75.5547 341.983 73.848C342.068 72.1413 342.111 70.3067 342.111 68.344C342.111 66.3813 342.025 63.5653 341.855 59.896C341.769 56.1413 341.556 52.3013 341.215 48.376C344.969 48.4613 349.108 48.5467 353.631 48.632C358.153 48.7173 362.676 48.76 367.199 48.76C371.721 48.76 375.86 48.76 379.615 48.76C383.284 48.76 387.38 48.76 391.903 48.76C396.425 48.76 400.948 48.7173 405.471 48.632C409.993 48.5467 414.132 48.4613 417.887 48.376ZM479.383 139V136.44C482.199 136.269 484.289 135.928 485.655 135.416C487.105 134.904 488.044 133.88 488.471 132.344C488.983 130.808 489.239 128.504 489.239 125.432V61.944C489.239 58.7867 488.983 56.4827 488.471 55.032C488.044 53.496 487.105 52.472 485.655 51.96C484.289 51.3627 482.199 51.0213 479.383 50.936V48.376C481.687 48.4613 484.545 48.5467 487.959 48.632C491.372 48.7173 494.785 48.76 498.199 48.76C501.953 48.76 505.452 48.7173 508.695 48.632C512.023 48.5467 514.668 48.4613 516.631 48.376V50.936C513.9 51.0213 511.809 51.3627 510.359 51.96C508.993 52.472 508.055 53.496 507.543 55.032C507.031 56.4827 506.775 58.7867 506.775 61.944V125.432C506.775 128.504 507.031 130.808 507.543 132.344C508.055 133.88 508.993 134.904 510.359 135.416C511.809 135.928 513.9 136.269 516.631 136.44V139C514.668 138.829 512.023 138.744 508.695 138.744C505.452 138.659 501.953 138.616 498.199 138.616C494.785 138.616 491.372 138.659 487.959 138.744C484.545 138.744 481.687 138.829 479.383 139ZM425.367 139V136.44C428.183 136.269 430.273 135.928 431.639 135.416C433.089 134.904 434.028 133.88 434.455 132.344C434.967 130.808 435.223 128.504 435.223 125.432V61.944C435.223 58.7867 434.967 56.4827 434.455 55.032C434.028 53.496 433.089 52.472 431.639 51.96C430.273 51.3627 428.183 51.0213 425.367 50.936V48.376C427.5 48.4613 430.231 48.5467 433.559 48.632C436.887 48.7173 440.471 48.76 444.311 48.76C447.724 48.76 451.095 48.7173 454.423 48.632C457.751 48.5467 460.481 48.4613 462.615 48.376V50.936C459.884 51.0213 457.793 51.3627 456.343 51.96C454.977 52.472 454.039 53.496 453.527 55.032C453.015 56.4827 452.759 58.7867 452.759 61.944V125.432C452.759 128.504 453.015 130.808 453.527 132.344C454.039 133.88 454.977 134.904 456.343 135.416C457.793 135.928 459.884 136.269 462.615 136.44V139C460.481 138.829 457.751 138.744 454.423 138.744C451.095 138.659 447.724 138.616 444.311 138.616C440.471 138.616 436.887 138.659 433.559 138.744C430.231 138.744 427.5 138.829 425.367 139ZM445.719 94.712V92.152H496.279V94.712H445.719Z" fill="#1A1714"/>
</svg>
