<svg width="522" height="171" viewBox="0 0 522 171" fill="none" xmlns="http://www.w3.org/2000/svg">
<path d="M192.561 48.376C192.219 51.8747 191.963 55.288 191.793 58.616C191.707 61.8587 191.665 64.3333 191.665 66.04C191.665 67.6613 191.707 69.24 191.793 70.776C191.878 72.2267 191.963 73.464 192.049 74.488H189.105C188.422 68.6 187.313 63.992 185.777 60.664C184.241 57.2507 182.15 54.8613 179.505 53.496C176.945 52.0453 173.574 51.32 169.393 51.32H162.353C159.793 51.32 157.83 51.5333 156.465 51.96C155.099 52.3867 154.161 53.2827 153.649 54.648C153.222 56.0133 153.009 58.104 153.009 60.92V126.456C153.009 129.187 153.222 131.277 153.649 132.728C154.161 134.093 155.099 134.989 156.465 135.416C157.83 135.843 159.793 136.056 162.353 136.056H169.649C174.001 136.056 177.627 135.245 180.529 133.624C183.515 132.003 185.905 129.357 187.697 125.688C189.489 121.933 190.811 116.813 191.665 110.328H194.609C194.353 112.973 194.225 116.387 194.225 120.568C194.225 122.36 194.267 124.963 194.353 128.376C194.523 131.789 194.779 135.331 195.121 139C190.769 138.829 185.862 138.744 180.401 138.744C174.939 138.659 170.075 138.616 165.809 138.616C163.846 138.616 161.243 138.616 158.001 138.616C154.843 138.616 151.387 138.659 147.633 138.744C143.963 138.744 140.209 138.787 136.369 138.872C132.614 138.872 129.03 138.915 125.617 139V136.44C128.433 136.269 130.523 135.928 131.889 135.416C133.339 134.904 134.278 133.88 134.705 132.344C135.217 130.808 135.473 128.504 135.473 125.432V61.944C135.473 58.7867 135.217 56.4827 134.705 55.032C134.278 53.496 133.339 52.472 131.889 51.96C130.523 51.3627 128.433 51.0213 125.617 50.936V48.376C129.03 48.4613 132.614 48.5467 136.369 48.632C140.209 48.632 143.963 48.6747 147.633 48.76C151.387 48.76 154.843 48.76 158.001 48.76C161.243 48.76 163.846 48.76 165.809 48.76C169.734 48.76 174.171 48.76 179.121 48.76C184.155 48.6747 188.635 48.5467 192.561 48.376ZM171.953 92.152C171.953 92.152 171.953 92.5787 171.953 93.432C171.953 94.2853 171.953 94.712 171.953 94.712H149.169C149.169 94.712 149.169 94.2853 149.169 93.432C149.169 92.5787 149.169 92.152 149.169 92.152H171.953ZM175.665 75.256C175.323 80.12 175.153 83.832 175.153 86.392C175.238 88.952 175.281 91.2987 175.281 93.432C175.281 95.5653 175.323 97.912 175.409 100.472C175.494 103.032 175.707 106.744 176.049 111.608H173.105C172.678 108.707 171.995 105.976 171.057 103.416C170.203 100.771 168.795 98.68 166.833 97.144C164.955 95.5227 162.225 94.712 158.641 94.712V92.152C161.286 92.152 163.419 91.5973 165.041 90.488C166.747 89.3787 168.113 87.9707 169.137 86.264C170.161 84.472 170.929 82.6373 171.441 80.76C172.038 78.7973 172.465 76.9627 172.721 75.256H175.665ZM288.189 48.376V50.936C285.458 51.192 283.367 51.832 281.917 52.856C280.466 53.7947 279.485 55.3307 278.973 57.464C278.546 59.512 278.333 62.456 278.333 66.296V139.384C277.565 139.299 276.711 139.256 275.773 139.256C274.919 139.256 273.981 139.299 272.957 139.384L218.045 64.76V120.056C218.045 124.152 218.301 127.352 218.813 129.656C219.325 131.875 220.434 133.496 222.141 134.52C223.933 135.459 226.621 136.099 230.205 136.44V139C228.583 138.829 226.493 138.744 223.933 138.744C221.373 138.659 218.941 138.616 216.637 138.616C214.589 138.616 212.498 138.659 210.365 138.744C208.317 138.744 206.61 138.829 205.245 139V136.44C208.061 136.099 210.151 135.459 211.517 134.52C212.967 133.581 213.906 132.045 214.333 129.912C214.845 127.779 215.101 124.835 215.101 121.08V61.944C215.101 58.7867 214.845 56.4827 214.333 55.032C213.906 53.496 212.967 52.472 211.517 51.96C210.151 51.3627 208.061 51.0213 205.245 50.936V48.376C206.61 48.4613 208.317 48.5467 210.365 48.632C212.498 48.7173 214.589 48.76 216.637 48.76C218.599 48.76 220.519 48.7173 222.397 48.632C224.274 48.5467 225.938 48.4613 227.389 48.376L275.389 112.248V67.32C275.389 63.1387 275.133 59.9387 274.621 57.72C274.109 55.5013 272.999 53.88 271.293 52.856C269.586 51.832 266.898 51.192 263.229 50.936V48.376C264.85 48.4613 266.941 48.5467 269.501 48.632C272.146 48.7173 274.578 48.76 276.797 48.76C278.93 48.76 281.021 48.7173 283.069 48.632C285.202 48.5467 286.909 48.4613 288.189 48.376ZM333.49 48.376V50.936C330.759 51.0213 328.668 51.3627 327.218 51.96C325.852 52.472 324.914 53.496 324.402 55.032C323.89 56.4827 323.634 58.7867 323.634 61.944V125.432C323.634 128.504 323.89 130.808 324.402 132.344C324.914 133.88 325.852 134.904 327.218 135.416C328.668 135.928 330.759 136.269 333.49 136.44V139C331.356 138.829 328.626 138.744 325.298 138.744C321.97 138.659 318.599 138.616 315.186 138.616C311.346 138.616 307.762 138.659 304.434 138.744C301.106 138.744 298.375 138.829 296.242 139V136.44C299.058 136.269 301.148 135.928 302.514 135.416C303.964 134.904 304.903 133.88 305.33 132.344C305.842 130.808 306.098 128.504 306.098 125.432V61.944C306.098 58.7867 305.842 56.4827 305.33 55.032C304.903 53.496 303.964 52.472 302.514 51.96C301.148 51.3627 299.058 51.0213 296.242 50.936V48.376C298.375 48.4613 301.106 48.5467 304.434 48.632C307.762 48.7173 311.346 48.76 315.186 48.76C318.599 48.76 321.97 48.7173 325.298 48.632C328.626 48.5467 331.356 48.4613 333.49 48.376ZM417.887 48.376C417.545 52.3013 417.289 56.1413 417.119 59.896C417.033 63.5653 416.991 66.3813 416.991 68.344C416.991 70.3067 417.033 72.1413 417.119 73.848C417.204 75.5547 417.289 77.048 417.375 78.328H414.431C413.236 71.5013 411.785 66.168 410.079 62.328C408.372 58.4027 406.111 55.5867 403.295 53.88C400.564 52.1733 396.937 51.32 392.415 51.32H388.319V124.28C388.319 127.779 388.617 130.381 389.215 132.088C389.897 133.795 391.22 134.947 393.183 135.544C395.145 136.056 398.004 136.355 401.759 136.44V139C399.199 138.829 395.871 138.744 391.775 138.744C387.679 138.659 383.497 138.616 379.231 138.616C374.793 138.616 370.612 138.659 366.687 138.744C362.847 138.744 359.732 138.829 357.343 139V136.44C361.012 136.355 363.828 136.056 365.791 135.544C367.753 134.947 369.076 133.795 369.759 132.088C370.441 130.381 370.783 127.779 370.783 124.28V51.32H366.559C362.121 51.32 358.495 52.1733 355.679 53.88C352.863 55.5867 350.601 58.4027 348.895 62.328C347.188 66.168 345.78 71.5013 344.671 78.328H341.727C341.897 77.048 341.983 75.5547 341.983 73.848C342.068 72.1413 342.111 70.3067 342.111 68.344C342.111 66.3813 342.025 63.5653 341.855 59.896C341.769 56.1413 341.556 52.3013 341.215 48.376C344.969 48.4613 349.108 48.5467 353.631 48.632C358.153 48.7173 362.676 48.76 367.199 48.76C371.721 48.76 375.86 48.76 379.615 48.76C383.284 48.76 387.38 48.76 391.903 48.76C396.425 48.76 400.948 48.7173 405.471 48.632C409.993 48.5467 414.132 48.4613 417.887 48.376ZM479.383 139V136.44C482.199 136.269 484.289 135.928 485.655 135.416C487.105 134.904 488.044 133.88 488.471 132.344C488.983 130.808 489.239 128.504 489.239 125.432V61.944C489.239 58.7867 488.983 56.4827 488.471 55.032C488.044 53.496 487.105 52.472 485.655 51.96C484.289 51.3627 482.199 51.0213 479.383 50.936V48.376C481.687 48.4613 484.545 48.5467 487.959 48.632C491.372 48.7173 494.785 48.76 498.199 48.76C501.953 48.76 505.452 48.7173 508.695 48.632C512.023 48.5467 514.668 48.4613 516.631 48.376V50.936C513.9 51.0213 511.809 51.3627 510.359 51.96C508.993 52.472 508.055 53.496 507.543 55.032C507.031 56.4827 506.775 58.7867 506.775 61.944V125.432C506.775 128.504 507.031 130.808 507.543 132.344C508.055 133.88 508.993 134.904 510.359 135.416C511.809 135.928 513.9 136.269 516.631 136.44V139C514.668 138.829 512.023 138.744 508.695 138.744C505.452 138.659 501.953 138.616 498.199 138.616C494.785 138.616 491.372 138.659 487.959 138.744C484.545 138.744 481.687 138.829 479.383 139ZM425.367 139V136.44C428.183 136.269 430.273 135.928 431.639 135.416C433.089 134.904 434.028 133.88 434.455 132.344C434.967 130.808 435.223 128.504 435.223 125.432V61.944C435.223 58.7867 434.967 56.4827 434.455 55.032C434.028 53.496 433.089 52.472 431.639 51.96C430.273 51.3627 428.183 51.0213 425.367 50.936V48.376C427.5 48.4613 430.231 48.5467 433.559 48.632C436.887 48.7173 440.471 48.76 444.311 48.76C447.724 48.76 451.095 48.7173 454.423 48.632C457.751 48.5467 460.481 48.4613 462.615 48.376V50.936C459.884 51.0213 457.793 51.3627 456.343 51.96C454.977 52.472 454.039 53.496 453.527 55.032C453.015 56.4827 452.759 58.7867 452.759 61.944V125.432C452.759 128.504 453.015 130.808 453.527 132.344C454.039 133.88 454.977 134.904 456.343 135.416C457.793 135.928 459.884 136.269 462.615 136.44V139C460.481 138.829 457.751 138.744 454.423 138.744C451.095 138.659 447.724 138.616 444.311 138.616C440.471 138.616 436.887 138.659 433.559 138.744C430.231 138.744 427.5 138.829 425.367 139ZM445.719 94.712V92.152H496.279V94.712H445.719Z" fill="white"/>
<path fill-rule="evenodd" clip-rule="evenodd" d="M100.693 38C101.208 39.7579 101.702 41.5824 102.176 43.4735C104.284 48.1221 107.895 50.6686 113.009 51.1136C105.426 52.1611 101.397 56.5323 100.921 64.2271C100.365 56.5246 96.2599 52.1154 88.606 50.9995C96.3297 50.1172 100.359 45.784 100.693 38Z" fill="#F66D8C"/>
<path fill-rule="evenodd" clip-rule="evenodd" d="M32.7308 49.6311C36.4648 49.6318 40.1898 49.822 43.9058 50.2013C51.4925 51.1879 59.0945 52.0239 66.712 52.7099C69.2966 52.8621 71.8815 52.8621 74.4661 52.7099C77.8904 52.2723 81.3114 51.8921 84.7289 51.5696C80.4096 54.6831 75.6203 56.7357 70.361 57.7273C65.2357 58.7239 60.0663 59.1039 54.8528 58.8676C46.4124 58.1326 37.9741 57.4103 29.5379 56.701C24.6017 56.4586 19.9643 57.4849 15.6261 59.7799C12.0925 61.9419 10.154 65.0967 9.81053 69.2444C8.7806 66.9104 8.7806 64.5539 9.81053 62.1745C11.6473 58.0571 14.5741 54.9782 18.5909 52.938C23.1294 50.9794 27.8427 49.8772 32.7308 49.6311Z" fill="#F66D8C"/>
<path fill-rule="evenodd" clip-rule="evenodd" d="M88.3784 53.7362C90.158 53.9793 91.8303 54.5495 93.3958 55.4467C93.8129 55.7005 94.0031 56.0426 93.9659 56.4729C88.962 61.0205 84.0965 65.7336 79.3699 70.6128C71.5399 79.2032 63.7096 87.7934 55.8796 96.3838C50.1682 102.402 44.0486 107.913 37.5206 112.918C32.1319 116.7 26.3542 119.817 20.1879 122.269C15.0439 124.198 9.95062 126.174 4.90771 128.198C23.7032 109.099 42.6324 90.1696 61.6951 71.411C67.9634 65.6748 74.8053 60.7334 82.2207 56.587C84.294 55.6257 86.3466 54.6754 88.3784 53.7362Z" fill="#F66D8C"/>
<path fill-rule="evenodd" clip-rule="evenodd" d="M58.5014 60.122C59.1096 60.2741 59.7176 60.426 60.3259 60.5781C49.3518 61.1993 38.481 62.6058 27.713 64.7972C22.65 65.8641 18.3547 68.2588 14.8275 71.9812C13.2343 74.2967 12.588 76.8054 12.889 79.5072C11.7444 78.0862 11.2123 76.4519 11.2926 74.6039C11.842 69.493 14.2745 65.54 18.5905 62.7447C22.1579 60.5421 26.0349 59.2496 30.2217 58.8676C33.7186 58.7155 37.2157 58.7155 40.7126 58.8676C46.6378 59.3614 52.5674 59.7796 58.5014 60.122Z" fill="#F66D8C"/>
<path fill-rule="evenodd" clip-rule="evenodd" d="M103.202 101.857C104.622 103.738 105.116 105.867 104.684 108.243C104.186 111.566 102.894 114.53 100.807 117.138C96.8659 121.835 91.8864 124.838 85.8693 126.146C80.1422 127.376 74.3647 127.68 68.5365 127.058C59.4864 125.872 50.4398 124.655 41.3972 123.409C37.7616 122.977 34.1126 122.749 30.4502 122.725C31.9561 122.46 33.4766 122.308 35.0114 122.269C47.7882 121.941 60.5596 121.485 73.3258 120.901C79.6801 120.513 85.8378 119.221 91.7989 117.024C96.3435 115.265 99.8025 112.263 102.176 108.015C103.074 106.057 103.416 104.005 103.202 101.857Z" fill="#F66D8C"/>
<path fill-rule="evenodd" clip-rule="evenodd" d="M105.696 115C106.476 119.051 105.755 122.858 103.534 126.421C100.577 131.02 96.6706 134.382 91.8158 136.505C86.9076 138.5 81.8259 139.634 76.5707 139.907C69.8601 140.201 63.1857 139.796 56.5473 138.692C47.9946 137.179 39.4239 135.802 30.8354 134.561C23.2832 133.535 15.7744 133.778 8.3091 135.29C5.34041 136.076 2.57194 137.332 0.00394322 139.057C-0.0333731 138.323 0.194166 137.674 0.686559 137.113C5.29467 132.241 10.7936 129.042 17.1831 127.514C25.2209 125.684 33.3365 125.198 41.5297 126.056C52.6707 127.594 63.8201 129.052 74.9779 130.43C81.9276 131.14 88.678 130.25 95.2289 127.757C100.713 125.345 104.202 121.092 105.696 115Z" fill="#F66D8C"/>
</svg>
